<?xml version="1.0" encoding="utf-8" standalone="no"?>
<!DOCTYPE svg PUBLIC "-//W3C//DTD SVG 1.1//EN"
  "http://www.w3.org/Graphics/SVG/1.1/DTD/svg11.dtd">
<svg xmlns:xlink="http://www.w3.org/1999/xlink" width="576pt" height="216pt" viewBox="0 0 576 216" xmlns="http://www.w3.org/2000/svg" version="1.1">
 <metadata>
  <rdf:RDF xmlns:dc="http://purl.org/dc/elements/1.1/" xmlns:cc="http://creativecommons.org/ns#" xmlns:rdf="http://www.w3.org/1999/02/22-rdf-syntax-ns#">
   <cc:Work>
    <dc:type rdf:resource="http://purl.org/dc/dcmitype/StillImage"/>
    <dc:date>2024-07-13T21:09:01.127210</dc:date>
    <dc:format>image/svg+xml</dc:format>
    <dc:creator>
     <cc:Agent>
      <dc:title>Matplotlib v3.8.1, https://matplotlib.org/</dc:title>
     </cc:Agent>
    </dc:creator>
   </cc:Work>
  </rdf:RDF>
 </metadata>
 <defs>
  <style type="text/css">*{stroke-linejoin: round; stroke-linecap: butt}</style>
 </defs>
 <g id="figure_1">
  <g id="patch_1">
   <path d="M 0 216 
L 576 216 
L 576 0 
L 0 0 
z
" style="fill: #ffffff"/>
  </g>
  <g id="axes_1">
   <g id="patch_2">
    <path d="M 99.6 41.626353 
C 93.047491 41.626353 86.530954 42.596664 80.262696 44.505672 
C 73.994438 46.41468 68.043281 49.241427 62.603114 52.893817 
C 57.162946 56.546206 52.293498 60.984138 48.153415 66.063024 
C 44.013332 71.14191 40.64807 76.805988 38.167269 82.870722 
C 35.686468 88.935456 34.117366 95.334259 33.511083 101.858659 
C 32.9048 108.383058 33.267994 114.961421 34.588831 121.379424 
C 35.909669 127.797427 38.173648 133.984604 41.307008 139.739378 
C 44.440368 145.494152 48.408708 150.753339 53.082738 155.345595 
C 57.756768 159.937851 63.085171 163.812755 68.894348 166.844065 
C 74.703524 169.875374 80.929694 172.029806 87.370008 173.23717 
C 93.810322 174.444533 100.39407 174.691573 106.906753 173.970239 
C 113.419437 173.248905 119.789551 171.567117 125.809558 168.979669 
C 131.829565 166.392221 137.433369 162.927521 142.438398 158.698449 
C 147.443427 154.469376 151.794729 149.522363 155.350539 144.018584 
C 158.906349 138.514805 161.627627 132.514687 163.425713 126.213714 
C 165.223799 119.912742 166.078951 113.380094 165.96331 106.828606 
L 99.6 108 
z
" style="fill: #1f77b4"/>
   </g>
   <g id="patch_3">
    <path d="M 165.96331 106.828606 
C 165.699005 91.854908 160.374503 77.402576 150.861045 65.836434 
C 141.347588 54.270293 128.194003 46.257587 113.552602 43.109431 
L 99.6 108 
z
" style="fill: #ff7f0e"/>
   </g>
   <g id="patch_4">
    <path d="M 113.552602 43.109431 
C 112.025405 42.781057 110.48709 42.506699 108.940534 42.28687 
C 107.393977 42.067041 105.840142 41.901877 104.281931 41.791688 
L 99.6 108 
z
" style="fill: #2ca02c"/>
   </g>
   <g id="patch_5">
    <path d="M 104.281931 41.791688 
C 103.502886 41.736598 102.72293 41.695262 101.942426 41.6677 
C 101.161922 41.640137 100.380993 41.626353 99.600003 41.626353 
L 99.6 108 
z
" style="fill: #d62728"/>
   </g>
   <g id="patch_6">
    <path d="M 99.600003 41.626353 
C 99.600003 41.626353 99.600003 41.626353 99.600003 41.626353 
L 99.6 108 
z
" style="fill: #9467bd"/>
   </g>
   <g id="matplotlib.axis_1"/>
   <g id="matplotlib.axis_2"/>
   <g id="text_1">
    <!-- 75.3 -->
    <g transform="translate(60.55683 139.166732) scale(0.1 -0.1)">
     <defs>
      <path id="DejaVuSans-37" d="M 525 4666 
L 3525 4666 
L 3525 4397 
L 1831 0 
L 1172 0 
L 2766 4134 
L 525 4134 
L 525 4666 
z
" transform="scale(0.015625)"/>
      <path id="DejaVuSans-35" d="M 691 4666 
L 3169 4666 
L 3169 4134 
L 1269 4134 
L 1269 2991 
Q 1406 3038 1543 3061 
Q 1681 3084 1819 3084 
Q 2600 3084 3056 2656 
Q 3513 2228 3513 1497 
Q 3513 744 3044 326 
Q 2575 -91 1722 -91 
Q 1428 -91 1123 -41 
Q 819 9 494 109 
L 494 744 
Q 775 591 1075 516 
Q 1375 441 1709 441 
Q 2250 441 2565 725 
Q 2881 1009 2881 1497 
Q 2881 1984 2565 2268 
Q 2250 2553 1709 2553 
Q 1456 2553 1204 2497 
Q 953 2441 691 2322 
L 691 4666 
z
" transform="scale(0.015625)"/>
      <path id="DejaVuSans-2e" d="M 684 794 
L 1344 794 
L 1344 0 
L 684 0 
L 684 794 
z
" transform="scale(0.015625)"/>
      <path id="DejaVuSans-33" d="M 2597 2516 
Q 3050 2419 3304 2112 
Q 3559 1806 3559 1356 
Q 3559 666 3084 287 
Q 2609 -91 1734 -91 
Q 1441 -91 1130 -33 
Q 819 25 488 141 
L 488 750 
Q 750 597 1062 519 
Q 1375 441 1716 441 
Q 2309 441 2620 675 
Q 2931 909 2931 1356 
Q 2931 1769 2642 2001 
Q 2353 2234 1838 2234 
L 1294 2234 
L 1294 2753 
L 1863 2753 
Q 2328 2753 2575 2939 
Q 2822 3125 2822 3475 
Q 2822 3834 2567 4026 
Q 2313 4219 1838 4219 
Q 1578 4219 1281 4162 
Q 984 4106 628 3988 
L 628 4550 
Q 988 4650 1302 4700 
Q 1616 4750 1894 4750 
Q 2613 4750 3031 4423 
Q 3450 4097 3450 3541 
Q 3450 3153 3228 2886 
Q 3006 2619 2597 2516 
z
" transform="scale(0.015625)"/>
     </defs>
     <use xlink:href="#DejaVuSans-37"/>
     <use xlink:href="#DejaVuSans-35" x="63.623047"/>
     <use xlink:href="#DejaVuSans-2e" x="127.246094"/>
     <use xlink:href="#DejaVuSans-33" x="159.033203"/>
    </g>
   </g>
   <g id="text_2">
    <!-- 21.3 -->
    <g transform="translate(119.223815 85.461236) scale(0.1 -0.1)">
     <defs>
      <path id="DejaVuSans-32" d="M 1228 531 
L 3431 531 
L 3431 0 
L 469 0 
L 469 531 
Q 828 903 1448 1529 
Q 2069 2156 2228 2338 
Q 2531 2678 2651 2914 
Q 2772 3150 2772 3378 
Q 2772 3750 2511 3984 
Q 2250 4219 1831 4219 
Q 1534 4219 1204 4116 
Q 875 4013 500 3803 
L 500 4441 
Q 881 4594 1212 4672 
Q 1544 4750 1819 4750 
Q 2544 4750 2975 4387 
Q 3406 4025 3406 3419 
Q 3406 3131 3298 2873 
Q 3191 2616 2906 2266 
Q 2828 2175 2409 1742 
Q 1991 1309 1228 531 
z
" transform="scale(0.015625)"/>
      <path id="DejaVuSans-31" d="M 794 531 
L 1825 531 
L 1825 4091 
L 703 3866 
L 703 4441 
L 1819 4666 
L 2450 4666 
L 2450 531 
L 3481 531 
L 3481 0 
L 794 0 
L 794 531 
z
" transform="scale(0.015625)"/>
     </defs>
     <use xlink:href="#DejaVuSans-32"/>
     <use xlink:href="#DejaVuSans-31" x="63.623047"/>
     <use xlink:href="#DejaVuSans-2e" x="127.246094"/>
     <use xlink:href="#DejaVuSans-33" x="159.033203"/>
    </g>
   </g>
   <g id="text_3">
    <!-- 2.2 -->
    <g transform="translate(97.252758 71.331497) scale(0.1 -0.1)">
     <use xlink:href="#DejaVuSans-32"/>
     <use xlink:href="#DejaVuSans-2e" x="63.623047"/>
     <use xlink:href="#DejaVuSans-32" x="95.410156"/>
    </g>
   </g>
   <g id="text_4">
    <!-- 1.1 -->
    <g transform="translate(94.57647 27.844) scale(0.1 -0.1)">
     <use xlink:href="#DejaVuSans-31"/>
     <use xlink:href="#DejaVuSans-2e" x="63.623047"/>
     <use xlink:href="#DejaVuSans-31" x="95.410156"/>
    </g>
   </g>
   <g id="text_5">
    <!-- 0.0 -->
    <g transform="translate(91.648441 27.792316) scale(0.1 -0.1)">
     <defs>
      <path id="DejaVuSans-30" d="M 2034 4250 
Q 1547 4250 1301 3770 
Q 1056 3291 1056 2328 
Q 1056 1369 1301 889 
Q 1547 409 2034 409 
Q 2525 409 2770 889 
Q 3016 1369 3016 2328 
Q 3016 3291 2770 3770 
Q 2525 4250 2034 4250 
z
M 2034 4750 
Q 2819 4750 3233 4129 
Q 3647 3509 3647 2328 
Q 3647 1150 3233 529 
Q 2819 -91 2034 -91 
Q 1250 -91 836 529 
Q 422 1150 422 2328 
Q 422 3509 836 4129 
Q 1250 4750 2034 4750 
z
" transform="scale(0.015625)"/>
     </defs>
     <use xlink:href="#DejaVuSans-30"/>
     <use xlink:href="#DejaVuSans-2e" x="63.623047"/>
     <use xlink:href="#DejaVuSans-30" x="95.410156"/>
    </g>
   </g>
   <g id="legend_1">
    <g id="patch_7">
     <path d="M 30.003906 202.560471 
L 169.196094 202.560471 
Q 171.196094 202.560471 171.196094 200.560471 
L 171.196094 186.882346 
Q 171.196094 184.882346 169.196094 184.882346 
L 30.003906 184.882346 
Q 28.003906 184.882346 28.003906 186.882346 
L 28.003906 200.560471 
Q 28.003906 202.560471 30.003906 202.560471 
L 30.003906 202.560471 
z
" style="fill: none; opacity: 0"/>
    </g>
    <g id="line2d_1">
     <defs>
      <path id="mf636d6d0ed" d="M -1.5 1.5 
L 1.5 1.5 
L 1.5 -1.5 
L -1.5 -1.5 
z
" style="stroke: #1f77b4; stroke-linejoin: miter"/>
     </defs>
     <g>
      <use xlink:href="#mf636d6d0ed" x="42.003906" y="192.980783" style="fill: #1f77b4; stroke: #1f77b4; stroke-linejoin: miter"/>
     </g>
    </g>
    <g id="text_6">
     <!-- 1 -->
     <g transform="translate(47.003906 196.480783) scale(0.1 -0.1)">
      <use xlink:href="#DejaVuSans-31"/>
     </g>
    </g>
    <g id="line2d_2">
     <defs>
      <path id="md770283fb4" d="M -1.5 1.5 
L 1.5 1.5 
L 1.5 -1.5 
L -1.5 -1.5 
z
" style="stroke: #ff7f0e; stroke-linejoin: miter"/>
     </defs>
     <g>
      <use xlink:href="#md770283fb4" x="68.366406" y="192.980783" style="fill: #ff7f0e; stroke: #ff7f0e; stroke-linejoin: miter"/>
     </g>
    </g>
    <g id="text_7">
     <!-- 2 -->
     <g transform="translate(73.366406 196.480783) scale(0.1 -0.1)">
      <use xlink:href="#DejaVuSans-32"/>
     </g>
    </g>
    <g id="line2d_3">
     <defs>
      <path id="m04ee68011a" d="M -1.5 1.5 
L 1.5 1.5 
L 1.5 -1.5 
L -1.5 -1.5 
z
" style="stroke: #2ca02c; stroke-linejoin: miter"/>
     </defs>
     <g>
      <use xlink:href="#m04ee68011a" x="94.728906" y="192.980783" style="fill: #2ca02c; stroke: #2ca02c; stroke-linejoin: miter"/>
     </g>
    </g>
    <g id="text_8">
     <!-- 3 -->
     <g transform="translate(99.728906 196.480783) scale(0.1 -0.1)">
      <use xlink:href="#DejaVuSans-33"/>
     </g>
    </g>
    <g id="line2d_4">
     <defs>
      <path id="m9b2e5ae355" d="M -1.5 1.5 
L 1.5 1.5 
L 1.5 -1.5 
L -1.5 -1.5 
z
" style="stroke: #d62728; stroke-linejoin: miter"/>
     </defs>
     <g>
      <use xlink:href="#m9b2e5ae355" x="121.091406" y="192.980783" style="fill: #d62728; stroke: #d62728; stroke-linejoin: miter"/>
     </g>
    </g>
    <g id="text_9">
     <!-- 4 -->
     <g transform="translate(126.091406 196.480783) scale(0.1 -0.1)">
      <defs>
       <path id="DejaVuSans-34" d="M 2419 4116 
L 825 1625 
L 2419 1625 
L 2419 4116 
z
M 2253 4666 
L 3047 4666 
L 3047 1625 
L 3713 1625 
L 3713 1100 
L 3047 1100 
L 3047 0 
L 2419 0 
L 2419 1100 
L 313 1100 
L 313 1709 
L 2253 4666 
z
" transform="scale(0.015625)"/>
      </defs>
      <use xlink:href="#DejaVuSans-34"/>
     </g>
    </g>
    <g id="line2d_5">
     <defs>
      <path id="m5d1de04595" d="M -1.5 1.5 
L 1.5 1.5 
L 1.5 -1.5 
L -1.5 -1.5 
z
" style="stroke: #9467bd; stroke-linejoin: miter"/>
     </defs>
     <g>
      <use xlink:href="#m5d1de04595" x="147.453906" y="192.980783" style="fill: #9467bd; stroke: #9467bd; stroke-linejoin: miter"/>
     </g>
    </g>
    <g id="text_10">
     <!-- ≥5 -->
     <g transform="translate(152.453906 196.480783) scale(0.1 -0.1)">
      <defs>
       <path id="DejaVuSans-2265" d="M 678 3175 
L 678 3725 
L 4684 2578 
L 4684 2047 
L 678 897 
L 678 1453 
L 3681 2309 
L 678 3175 
z
M 4684 531 
L 4684 0 
L 678 0 
L 678 531 
L 4684 531 
z
" transform="scale(0.015625)"/>
      </defs>
      <use xlink:href="#DejaVuSans-2265"/>
      <use xlink:href="#DejaVuSans-35" x="83.789062"/>
     </g>
    </g>
   </g>
  </g>
  <g id="axes_2">
   <g id="patch_8">
    <path d="M 288 41.626353 
C 277.061189 41.626353 266.290146 44.330534 256.648545 49.497459 
C 247.006944 54.664384 238.79053 62.135562 232.732891 71.243943 
C 226.675253 80.352324 222.962201 90.818517 221.92525 101.708068 
C 220.888298 112.597619 222.559254 123.576502 226.788929 133.664486 
C 231.018604 143.752471 237.677258 152.640119 246.170384 159.533913 
C 254.66351 166.427708 264.73059 171.116188 275.472804 173.180752 
C 286.215018 175.245315 297.30286 174.622634 307.74637 171.368303 
C 318.189881 168.113972 327.668717 162.327815 335.336579 154.526437 
L 288 108 
z
" style="fill: #1f77b4"/>
   </g>
   <g id="patch_9">
    <path d="M 335.336579 154.526437 
C 346.149969 143.524759 352.796855 129.090163 354.126593 113.721424 
C 355.456332 98.352685 351.387493 82.99094 342.624435 70.295463 
L 288 108 
z
" style="fill: #ff7f0e"/>
   </g>
   <g id="patch_10">
    <path d="M 342.624435 70.295463 
C 338.493254 64.310415 333.406369 59.044815 327.567479 54.709516 
C 321.728589 50.374218 315.216684 47.027871 308.292526 44.804475 
L 288 108 
z
" style="fill: #2ca02c"/>
   </g>
   <g id="patch_11">
    <path d="M 308.292526 44.804475 
C 306.474162 44.220585 304.631443 43.715449 302.769516 43.290476 
C 300.907588 42.865504 299.028185 42.521091 297.136555 42.258199 
L 288 108 
z
" style="fill: #d62728"/>
   </g>
   <g id="patch_12">
    <path d="M 297.136555 42.258199 
C 295.623336 42.047897 294.103306 41.889904 292.579183 41.784503 
C 291.05506 41.679101 289.527752 41.626353 287.999989 41.626353 
L 288 108 
z
" style="fill: #9467bd"/>
   </g>
   <g id="matplotlib.axis_3"/>
   <g id="matplotlib.axis_4"/>
   <g id="text_11">
    <!-- 62.6 -->
    <g transform="translate(240.140545 126.158067) scale(0.1 -0.1)">
     <defs>
      <path id="DejaVuSans-36" d="M 2113 2584 
Q 1688 2584 1439 2293 
Q 1191 2003 1191 1497 
Q 1191 994 1439 701 
Q 1688 409 2113 409 
Q 2538 409 2786 701 
Q 3034 994 3034 1497 
Q 3034 2003 2786 2293 
Q 2538 2584 2113 2584 
z
M 3366 4563 
L 3366 3988 
Q 3128 4100 2886 4159 
Q 2644 4219 2406 4219 
Q 1781 4219 1451 3797 
Q 1122 3375 1075 2522 
Q 1259 2794 1537 2939 
Q 1816 3084 2150 3084 
Q 2853 3084 3261 2657 
Q 3669 2231 3669 1497 
Q 3669 778 3244 343 
Q 2819 -91 2113 -91 
Q 1303 -91 875 529 
Q 447 1150 447 2328 
Q 447 3434 972 4092 
Q 1497 4750 2381 4750 
Q 2619 4750 2861 4703 
Q 3103 4656 3366 4563 
z
" transform="scale(0.015625)"/>
     </defs>
     <use xlink:href="#DejaVuSans-36"/>
     <use xlink:href="#DejaVuSans-32" x="63.623047"/>
     <use xlink:href="#DejaVuSans-2e" x="127.246094"/>
     <use xlink:href="#DejaVuSans-36" x="159.033203"/>
    </g>
   </g>
   <g id="text_12">
    <!-- 22.0 -->
    <g transform="translate(316.543143 114.192229) scale(0.1 -0.1)">
     <use xlink:href="#DejaVuSans-32"/>
     <use xlink:href="#DejaVuSans-32" x="63.623047"/>
     <use xlink:href="#DejaVuSans-2e" x="127.246094"/>
     <use xlink:href="#DejaVuSans-30" x="159.033203"/>
    </g>
   </g>
   <g id="text_13">
    <!-- 10.4 -->
    <g transform="translate(300.607675 78.785085) scale(0.1 -0.1)">
     <use xlink:href="#DejaVuSans-31"/>
     <use xlink:href="#DejaVuSans-30" x="63.623047"/>
     <use xlink:href="#DejaVuSans-2e" x="127.246094"/>
     <use xlink:href="#DejaVuSans-34" x="159.033203"/>
    </g>
   </g>
   <g id="text_14">
    <!-- 2.7 -->
    <g transform="translate(288.910147 71.933661) scale(0.1 -0.1)">
     <use xlink:href="#DejaVuSans-32"/>
     <use xlink:href="#DejaVuSans-2e" x="63.623047"/>
     <use xlink:href="#DejaVuSans-37" x="95.410156"/>
    </g>
   </g>
   <g id="text_15">
    <!-- 2.2 -->
    <g transform="translate(285.772416 27.990003) scale(0.1 -0.1)">
     <use xlink:href="#DejaVuSans-32"/>
     <use xlink:href="#DejaVuSans-2e" x="63.623047"/>
     <use xlink:href="#DejaVuSans-32" x="95.410156"/>
    </g>
   </g>
   <g id="legend_2">
    <g id="patch_13">
     <path d="M 218.403906 202.560471 
L 357.596094 202.560471 
Q 359.596094 202.560471 359.596094 200.560471 
L 359.596094 186.882346 
Q 359.596094 184.882346 357.596094 184.882346 
L 218.403906 184.882346 
Q 216.403906 184.882346 216.403906 186.882346 
L 216.403906 200.560471 
Q 216.403906 202.560471 218.403906 202.560471 
L 218.403906 202.560471 
z
" style="fill: none; opacity: 0"/>
    </g>
    <g id="line2d_6">
     <g>
      <use xlink:href="#mf636d6d0ed" x="230.403906" y="192.980783" style="fill: #1f77b4; stroke: #1f77b4; stroke-linejoin: miter"/>
     </g>
    </g>
    <g id="text_16">
     <!-- 1 -->
     <g transform="translate(235.403906 196.480783) scale(0.1 -0.1)">
      <use xlink:href="#DejaVuSans-31"/>
     </g>
    </g>
    <g id="line2d_7">
     <g>
      <use xlink:href="#md770283fb4" x="256.766406" y="192.980783" style="fill: #ff7f0e; stroke: #ff7f0e; stroke-linejoin: miter"/>
     </g>
    </g>
    <g id="text_17">
     <!-- 2 -->
     <g transform="translate(261.766406 196.480783) scale(0.1 -0.1)">
      <use xlink:href="#DejaVuSans-32"/>
     </g>
    </g>
    <g id="line2d_8">
     <g>
      <use xlink:href="#m04ee68011a" x="283.128906" y="192.980783" style="fill: #2ca02c; stroke: #2ca02c; stroke-linejoin: miter"/>
     </g>
    </g>
    <g id="text_18">
     <!-- 3 -->
     <g transform="translate(288.128906 196.480783) scale(0.1 -0.1)">
      <use xlink:href="#DejaVuSans-33"/>
     </g>
    </g>
    <g id="line2d_9">
     <g>
      <use xlink:href="#m9b2e5ae355" x="309.491406" y="192.980783" style="fill: #d62728; stroke: #d62728; stroke-linejoin: miter"/>
     </g>
    </g>
    <g id="text_19">
     <!-- 4 -->
     <g transform="translate(314.491406 196.480783) scale(0.1 -0.1)">
      <use xlink:href="#DejaVuSans-34"/>
     </g>
    </g>
    <g id="line2d_10">
     <g>
      <use xlink:href="#m5d1de04595" x="335.853906" y="192.980783" style="fill: #9467bd; stroke: #9467bd; stroke-linejoin: miter"/>
     </g>
    </g>
    <g id="text_20">
     <!-- ≥5 -->
     <g transform="translate(340.853906 196.480783) scale(0.1 -0.1)">
      <use xlink:href="#DejaVuSans-2265"/>
      <use xlink:href="#DejaVuSans-35" x="83.789062"/>
     </g>
    </g>
   </g>
  </g>
  <g id="axes_3">
   <g id="patch_14">
    <path d="M 476.4 41.626353 
C 465.847175 41.626353 455.444937 44.143062 446.059207 48.966981 
C 436.673477 53.7909 428.572121 60.784355 422.429526 69.365185 
C 416.28693 77.946015 412.278404 87.869325 410.73763 98.309064 
C 409.196857 108.748802 410.16781 119.407021 413.569663 129.396491 
C 416.971517 139.385961 422.707183 148.421586 430.299204 155.751206 
C 437.891226 163.080826 447.122927 168.495257 457.225829 171.543782 
C 467.32873 174.592306 478.014498 175.18792 488.393608 173.281042 
C 498.772719 171.374163 508.548955 167.019216 516.908509 160.578719 
L 476.4 108 
z
" style="fill: #1f77b4"/>
   </g>
   <g id="patch_15">
    <path d="M 516.908509 160.578719 
C 524.332001 154.859398 530.46077 147.632223 534.890417 139.374069 
C 539.320064 131.115915 541.950971 122.012499 542.609542 112.664495 
L 476.4 108 
z
" style="fill: #ff7f0e"/>
   </g>
   <g id="patch_16">
    <path d="M 542.609542 112.664495 
C 542.974485 107.484364 542.730242 102.279254 541.881829 97.156058 
C 541.033416 92.032861 539.58668 87.026887 537.571331 82.240937 
L 476.4 108 
z
" style="fill: #2ca02c"/>
   </g>
   <g id="patch_17">
    <path d="M 537.571331 82.240937 
C 536.363005 79.371466 534.95427 76.590569 533.355566 73.918853 
C 531.756861 71.247138 529.972146 68.691221 528.014645 66.270042 
L 476.4 108 
z
" style="fill: #d62728"/>
   </g>
   <g id="patch_18">
    <path d="M 528.014645 66.270042 
C 521.792946 58.574592 513.928265 52.367097 504.998007 48.103297 
C 496.067749 43.839497 486.295943 41.626354 476.400009 41.626353 
L 476.4 108 
z
" style="fill: #9467bd"/>
   </g>
   <g id="matplotlib.axis_5"/>
   <g id="matplotlib.axis_6"/>
   <g id="text_21">
    <!-- 60.4 -->
    <g transform="translate(427.568986 123.59727) scale(0.1 -0.1)">
     <use xlink:href="#DejaVuSans-36"/>
     <use xlink:href="#DejaVuSans-30" x="63.623047"/>
     <use xlink:href="#DejaVuSans-2e" x="127.246094"/>
     <use xlink:href="#DejaVuSans-34" x="159.033203"/>
    </g>
   </g>
   <g id="text_22">
    <!-- 13.4 -->
    <g transform="translate(500.361437 129.583816) scale(0.1 -0.1)">
     <use xlink:href="#DejaVuSans-31"/>
     <use xlink:href="#DejaVuSans-33" x="63.623047"/>
     <use xlink:href="#DejaVuSans-2e" x="127.246094"/>
     <use xlink:href="#DejaVuSans-34" x="159.033203"/>
    </g>
   </g>
   <g id="text_23">
    <!-- 7.5 -->
    <g transform="translate(507.737535 104.25301) scale(0.1 -0.1)">
     <use xlink:href="#DejaVuSans-37"/>
     <use xlink:href="#DejaVuSans-2e" x="63.623047"/>
     <use xlink:href="#DejaVuSans-35" x="95.410156"/>
    </g>
   </g>
   <g id="text_24">
    <!-- 4.5 -->
    <g transform="translate(502.621777 90.310687) scale(0.1 -0.1)">
     <use xlink:href="#DejaVuSans-34"/>
     <use xlink:href="#DejaVuSans-2e" x="63.623047"/>
     <use xlink:href="#DejaVuSans-35" x="95.410156"/>
    </g>
   </g>
   <g id="text_25">
    <!-- 14.2 -->
    <g transform="translate(482.425992 74.821353) scale(0.1 -0.1)">
     <use xlink:href="#DejaVuSans-31"/>
     <use xlink:href="#DejaVuSans-34" x="63.623047"/>
     <use xlink:href="#DejaVuSans-2e" x="127.246094"/>
     <use xlink:href="#DejaVuSans-32" x="159.033203"/>
    </g>
   </g>
   <g id="legend_3">
    <g id="patch_19">
     <path d="M 406.803906 202.560471 
L 545.996094 202.560471 
Q 547.996094 202.560471 547.996094 200.560471 
L 547.996094 186.882346 
Q 547.996094 184.882346 545.996094 184.882346 
L 406.803906 184.882346 
Q 404.803906 184.882346 404.803906 186.882346 
L 404.803906 200.560471 
Q 404.803906 202.560471 406.803906 202.560471 
L 406.803906 202.560471 
z
" style="fill: none; opacity: 0"/>
    </g>
    <g id="line2d_11">
     <g>
      <use xlink:href="#mf636d6d0ed" x="418.803906" y="192.980783" style="fill: #1f77b4; stroke: #1f77b4; stroke-linejoin: miter"/>
     </g>
    </g>
    <g id="text_26">
     <!-- 1 -->
     <g transform="translate(423.803906 196.480783) scale(0.1 -0.1)">
      <use xlink:href="#DejaVuSans-31"/>
     </g>
    </g>
    <g id="line2d_12">
     <g>
      <use xlink:href="#md770283fb4" x="445.166406" y="192.980783" style="fill: #ff7f0e; stroke: #ff7f0e; stroke-linejoin: miter"/>
     </g>
    </g>
    <g id="text_27">
     <!-- 2 -->
     <g transform="translate(450.166406 196.480783) scale(0.1 -0.1)">
      <use xlink:href="#DejaVuSans-32"/>
     </g>
    </g>
    <g id="line2d_13">
     <g>
      <use xlink:href="#m04ee68011a" x="471.528906" y="192.980783" style="fill: #2ca02c; stroke: #2ca02c; stroke-linejoin: miter"/>
     </g>
    </g>
    <g id="text_28">
     <!-- 3 -->
     <g transform="translate(476.528906 196.480783) scale(0.1 -0.1)">
      <use xlink:href="#DejaVuSans-33"/>
     </g>
    </g>
    <g id="line2d_14">
     <g>
      <use xlink:href="#m9b2e5ae355" x="497.891406" y="192.980783" style="fill: #d62728; stroke: #d62728; stroke-linejoin: miter"/>
     </g>
    </g>
    <g id="text_29">
     <!-- 4 -->
     <g transform="translate(502.891406 196.480783) scale(0.1 -0.1)">
      <use xlink:href="#DejaVuSans-34"/>
     </g>
    </g>
    <g id="line2d_15">
     <g>
      <use xlink:href="#m5d1de04595" x="524.253906" y="192.980783" style="fill: #9467bd; stroke: #9467bd; stroke-linejoin: miter"/>
     </g>
    </g>
    <g id="text_30">
     <!-- ≥5 -->
     <g transform="translate(529.253906 196.480783) scale(0.1 -0.1)">
      <use xlink:href="#DejaVuSans-2265"/>
      <use xlink:href="#DejaVuSans-35" x="83.789062"/>
     </g>
    </g>
   </g>
  </g>
 </g>
</svg>
