<?xml version="1.0" encoding="utf-8" standalone="no"?>
<!DOCTYPE svg PUBLIC "-//W3C//DTD SVG 1.1//EN"
  "http://www.w3.org/Graphics/SVG/1.1/DTD/svg11.dtd">
<svg xmlns:xlink="http://www.w3.org/1999/xlink" width="576pt" height="216pt" viewBox="0 0 576 216" xmlns="http://www.w3.org/2000/svg" version="1.1">
 <metadata>
  <rdf:RDF xmlns:dc="http://purl.org/dc/elements/1.1/" xmlns:cc="http://creativecommons.org/ns#" xmlns:rdf="http://www.w3.org/1999/02/22-rdf-syntax-ns#">
   <cc:Work>
    <dc:type rdf:resource="http://purl.org/dc/dcmitype/StillImage"/>
    <dc:date>2024-07-13T21:09:00.974859</dc:date>
    <dc:format>image/svg+xml</dc:format>
    <dc:creator>
     <cc:Agent>
      <dc:title>Matplotlib v3.8.1, https://matplotlib.org/</dc:title>
     </cc:Agent>
    </dc:creator>
   </cc:Work>
  </rdf:RDF>
 </metadata>
 <defs>
  <style type="text/css">*{stroke-linejoin: round; stroke-linecap: butt}</style>
 </defs>
 <g id="figure_1">
  <g id="patch_1">
   <path d="M 0 216 
L 576 216 
L 576 0 
L 0 0 
z
" style="fill: #ffffff"/>
  </g>
  <g id="axes_1">
   <g id="patch_2">
    <path d="M 99.6 41.626353 
C 86.525101 41.626353 73.737171 45.489776 62.849423 52.729247 
C 51.961675 59.968718 43.45204 70.266452 38.39402 82.323376 
C 33.335999 94.3803 31.951621 107.667162 34.415525 120.507807 
C 36.879429 133.348452 43.083461 145.179225 52.244973 154.50766 
C 61.406485 163.836094 73.123322 170.252707 85.917391 172.948035 
C 98.71146 175.643363 112.021149 174.499091 124.167426 169.65957 
C 136.313703 164.82005 146.763391 156.497718 154.198249 145.742446 
C 161.633108 134.987174 165.726775 122.271078 165.962829 109.19831 
L 99.6 108 
z
" style="fill: #1f77b4"/>
   </g>
   <g id="patch_3">
    <path d="M 165.962829 109.19831 
C 166.254401 93.050966 160.642744 77.339502 150.187469 65.030604 
C 139.732194 52.721706 125.135567 44.642147 109.153768 42.317532 
L 99.6 108 
z
" style="fill: #ff7f0e"/>
   </g>
   <g id="patch_4">
    <path d="M 109.153768 42.317532 
C 108.363143 42.202533 107.570506 42.101818 106.776244 42.015437 
C 105.981983 41.929056 105.186226 41.857023 104.389364 41.799373 
L 99.6 108 
z
" style="fill: #2ca02c"/>
   </g>
   <g id="patch_5">
    <path d="M 104.389364 41.799373 
C 103.592502 41.741723 102.794664 41.698466 101.99624 41.669622 
C 101.197815 41.640778 100.398936 41.626353 99.599991 41.626353 
L 99.6 108 
z
" style="fill: #d62728"/>
   </g>
   <g id="patch_6">
    <path d="M 99.599991 41.626353 
C 99.599991 41.626353 99.599991 41.626353 99.599991 41.626353 
L 99.6 108 
z
" style="fill: #9467bd"/>
   </g>
   <g id="matplotlib.axis_1"/>
   <g id="matplotlib.axis_2"/>
   <g id="text_1">
    <!-- 74.7 -->
    <g transform="translate(60.054171 138.663971) scale(0.1 -0.1)">
     <defs>
      <path id="DejaVuSans-37" d="M 525 4666 
L 3525 4666 
L 3525 4397 
L 1831 0 
L 1172 0 
L 2766 4134 
L 525 4134 
L 525 4666 
z
" transform="scale(0.015625)"/>
      <path id="DejaVuSans-34" d="M 2419 4116 
L 825 1625 
L 2419 1625 
L 2419 4116 
z
M 2253 4666 
L 3047 4666 
L 3047 1625 
L 3713 1625 
L 3713 1100 
L 3047 1100 
L 3047 0 
L 2419 0 
L 2419 1100 
L 313 1100 
L 313 1709 
L 2253 4666 
z
" transform="scale(0.015625)"/>
      <path id="DejaVuSans-2e" d="M 684 794 
L 1344 794 
L 1344 0 
L 684 0 
L 684 794 
z
" transform="scale(0.015625)"/>
     </defs>
     <use xlink:href="#DejaVuSans-37"/>
     <use xlink:href="#DejaVuSans-34" x="63.623047"/>
     <use xlink:href="#DejaVuSans-2e" x="127.246094"/>
     <use xlink:href="#DejaVuSans-37" x="159.033203"/>
    </g>
   </g>
   <g id="text_2">
    <!-- 23.0 -->
    <g transform="translate(118.819669 84.977737) scale(0.1 -0.1)">
     <defs>
      <path id="DejaVuSans-32" d="M 1228 531 
L 3431 531 
L 3431 0 
L 469 0 
L 469 531 
Q 828 903 1448 1529 
Q 2069 2156 2228 2338 
Q 2531 2678 2651 2914 
Q 2772 3150 2772 3378 
Q 2772 3750 2511 3984 
Q 2250 4219 1831 4219 
Q 1534 4219 1204 4116 
Q 875 4013 500 3803 
L 500 4441 
Q 881 4594 1212 4672 
Q 1544 4750 1819 4750 
Q 2544 4750 2975 4387 
Q 3406 4025 3406 3419 
Q 3406 3131 3298 2873 
Q 3191 2616 2906 2266 
Q 2828 2175 2409 1742 
Q 1991 1309 1228 531 
z
" transform="scale(0.015625)"/>
      <path id="DejaVuSans-33" d="M 2597 2516 
Q 3050 2419 3304 2112 
Q 3559 1806 3559 1356 
Q 3559 666 3084 287 
Q 2609 -91 1734 -91 
Q 1441 -91 1130 -33 
Q 819 25 488 141 
L 488 750 
Q 750 597 1062 519 
Q 1375 441 1716 441 
Q 2309 441 2620 675 
Q 2931 909 2931 1356 
Q 2931 1769 2642 2001 
Q 2353 2234 1838 2234 
L 1294 2234 
L 1294 2753 
L 1863 2753 
Q 2328 2753 2575 2939 
Q 2822 3125 2822 3475 
Q 2822 3834 2567 4026 
Q 2313 4219 1838 4219 
Q 1578 4219 1281 4162 
Q 984 4106 628 3988 
L 628 4550 
Q 988 4650 1302 4700 
Q 1616 4750 1894 4750 
Q 2613 4750 3031 4423 
Q 3450 4097 3450 3541 
Q 3450 3153 3228 2886 
Q 3006 2619 2597 2516 
z
" transform="scale(0.015625)"/>
      <path id="DejaVuSans-30" d="M 2034 4250 
Q 1547 4250 1301 3770 
Q 1056 3291 1056 2328 
Q 1056 1369 1301 889 
Q 1547 409 2034 409 
Q 2525 409 2770 889 
Q 3016 1369 3016 2328 
Q 3016 3291 2770 3770 
Q 2525 4250 2034 4250 
z
M 2034 4750 
Q 2819 4750 3233 4129 
Q 3647 3509 3647 2328 
Q 3647 1150 3233 529 
Q 2819 -91 2034 -91 
Q 1250 -91 836 529 
Q 422 1150 422 2328 
Q 422 3509 836 4129 
Q 1250 4750 2034 4750 
z
" transform="scale(0.015625)"/>
     </defs>
     <use xlink:href="#DejaVuSans-32"/>
     <use xlink:href="#DejaVuSans-33" x="63.623047"/>
     <use xlink:href="#DejaVuSans-2e" x="127.246094"/>
     <use xlink:href="#DejaVuSans-30" x="159.033203"/>
    </g>
   </g>
   <g id="text_3">
    <!-- 1.1 -->
    <g transform="translate(95.954184 71.168637) scale(0.1 -0.1)">
     <defs>
      <path id="DejaVuSans-31" d="M 794 531 
L 1825 531 
L 1825 4091 
L 703 3866 
L 703 4441 
L 1819 4666 
L 2450 4666 
L 2450 531 
L 3481 531 
L 3481 0 
L 794 0 
L 794 531 
z
" transform="scale(0.015625)"/>
     </defs>
     <use xlink:href="#DejaVuSans-31"/>
     <use xlink:href="#DejaVuSans-2e" x="63.623047"/>
     <use xlink:href="#DejaVuSans-31" x="95.410156"/>
    </g>
   </g>
   <g id="text_4">
    <!-- 1.1 -->
    <g transform="translate(94.643737 27.846402) scale(0.1 -0.1)">
     <use xlink:href="#DejaVuSans-31"/>
     <use xlink:href="#DejaVuSans-2e" x="63.623047"/>
     <use xlink:href="#DejaVuSans-31" x="95.410156"/>
    </g>
   </g>
   <g id="text_5">
    <!-- 0.0 -->
    <g transform="translate(91.648426 27.792316) scale(0.1 -0.1)">
     <use xlink:href="#DejaVuSans-30"/>
     <use xlink:href="#DejaVuSans-2e" x="63.623047"/>
     <use xlink:href="#DejaVuSans-30" x="95.410156"/>
    </g>
   </g>
   <g id="legend_1">
    <g id="patch_7">
     <path d="M 30.003906 202.560471 
L 169.196094 202.560471 
Q 171.196094 202.560471 171.196094 200.560471 
L 171.196094 186.882346 
Q 171.196094 184.882346 169.196094 184.882346 
L 30.003906 184.882346 
Q 28.003906 184.882346 28.003906 186.882346 
L 28.003906 200.560471 
Q 28.003906 202.560471 30.003906 202.560471 
L 30.003906 202.560471 
z
" style="fill: none; opacity: 0"/>
    </g>
    <g id="line2d_1">
     <defs>
      <path id="m3115d65216" d="M -1.5 1.5 
L 1.5 1.5 
L 1.5 -1.5 
L -1.5 -1.5 
z
" style="stroke: #1f77b4; stroke-linejoin: miter"/>
     </defs>
     <g>
      <use xlink:href="#m3115d65216" x="42.003906" y="192.980783" style="fill: #1f77b4; stroke: #1f77b4; stroke-linejoin: miter"/>
     </g>
    </g>
    <g id="text_6">
     <!-- 1 -->
     <g transform="translate(47.003906 196.480783) scale(0.1 -0.1)">
      <use xlink:href="#DejaVuSans-31"/>
     </g>
    </g>
    <g id="line2d_2">
     <defs>
      <path id="m27e0e19497" d="M -1.5 1.5 
L 1.5 1.5 
L 1.5 -1.5 
L -1.5 -1.5 
z
" style="stroke: #ff7f0e; stroke-linejoin: miter"/>
     </defs>
     <g>
      <use xlink:href="#m27e0e19497" x="68.366406" y="192.980783" style="fill: #ff7f0e; stroke: #ff7f0e; stroke-linejoin: miter"/>
     </g>
    </g>
    <g id="text_7">
     <!-- 2 -->
     <g transform="translate(73.366406 196.480783) scale(0.1 -0.1)">
      <use xlink:href="#DejaVuSans-32"/>
     </g>
    </g>
    <g id="line2d_3">
     <defs>
      <path id="m25793ea601" d="M -1.5 1.5 
L 1.5 1.5 
L 1.5 -1.5 
L -1.5 -1.5 
z
" style="stroke: #2ca02c; stroke-linejoin: miter"/>
     </defs>
     <g>
      <use xlink:href="#m25793ea601" x="94.728906" y="192.980783" style="fill: #2ca02c; stroke: #2ca02c; stroke-linejoin: miter"/>
     </g>
    </g>
    <g id="text_8">
     <!-- 3 -->
     <g transform="translate(99.728906 196.480783) scale(0.1 -0.1)">
      <use xlink:href="#DejaVuSans-33"/>
     </g>
    </g>
    <g id="line2d_4">
     <defs>
      <path id="m266cc1bd7c" d="M -1.5 1.5 
L 1.5 1.5 
L 1.5 -1.5 
L -1.5 -1.5 
z
" style="stroke: #d62728; stroke-linejoin: miter"/>
     </defs>
     <g>
      <use xlink:href="#m266cc1bd7c" x="121.091406" y="192.980783" style="fill: #d62728; stroke: #d62728; stroke-linejoin: miter"/>
     </g>
    </g>
    <g id="text_9">
     <!-- 4 -->
     <g transform="translate(126.091406 196.480783) scale(0.1 -0.1)">
      <use xlink:href="#DejaVuSans-34"/>
     </g>
    </g>
    <g id="line2d_5">
     <defs>
      <path id="m4a1674e6eb" d="M -1.5 1.5 
L 1.5 1.5 
L 1.5 -1.5 
L -1.5 -1.5 
z
" style="stroke: #9467bd; stroke-linejoin: miter"/>
     </defs>
     <g>
      <use xlink:href="#m4a1674e6eb" x="147.453906" y="192.980783" style="fill: #9467bd; stroke: #9467bd; stroke-linejoin: miter"/>
     </g>
    </g>
    <g id="text_10">
     <!-- ≥5 -->
     <g transform="translate(152.453906 196.480783) scale(0.1 -0.1)">
      <defs>
       <path id="DejaVuSans-2265" d="M 678 3175 
L 678 3725 
L 4684 2578 
L 4684 2047 
L 678 897 
L 678 1453 
L 3681 2309 
L 678 3175 
z
M 4684 531 
L 4684 0 
L 678 0 
L 678 531 
L 4684 531 
z
" transform="scale(0.015625)"/>
       <path id="DejaVuSans-35" d="M 691 4666 
L 3169 4666 
L 3169 4134 
L 1269 4134 
L 1269 2991 
Q 1406 3038 1543 3061 
Q 1681 3084 1819 3084 
Q 2600 3084 3056 2656 
Q 3513 2228 3513 1497 
Q 3513 744 3044 326 
Q 2575 -91 1722 -91 
Q 1428 -91 1123 -41 
Q 819 9 494 109 
L 494 744 
Q 775 591 1075 516 
Q 1375 441 1709 441 
Q 2250 441 2565 725 
Q 2881 1009 2881 1497 
Q 2881 1984 2565 2268 
Q 2250 2553 1709 2553 
Q 1456 2553 1204 2497 
Q 953 2441 691 2322 
L 691 4666 
z
" transform="scale(0.015625)"/>
      </defs>
      <use xlink:href="#DejaVuSans-2265"/>
      <use xlink:href="#DejaVuSans-35" x="83.789062"/>
     </g>
    </g>
   </g>
  </g>
  <g id="axes_2">
   <g id="patch_8">
    <path d="M 288 41.626353 
C 277.097594 41.626353 266.361283 44.312565 256.743433 49.446708 
C 247.125583 54.580851 238.919245 62.00649 232.852363 71.064934 
C 226.785481 80.123377 223.042909 90.53862 221.956633 101.386774 
C 220.870358 112.234929 222.473477 123.18546 226.623784 133.266998 
C 230.774092 143.348535 237.345132 152.253902 245.754018 159.193145 
C 254.162904 166.132387 264.153424 170.894072 274.839365 173.055812 
C 285.525306 175.217553 296.581075 174.713482 307.025967 171.588313 
C 317.47086 168.463145 326.986627 162.812101 334.72917 155.136459 
L 288 108 
z
" style="fill: #1f77b4"/>
   </g>
   <g id="patch_9">
    <path d="M 334.72917 155.136459 
C 345.746036 144.214785 352.592775 129.768985 354.071442 114.326581 
C 355.550108 98.884177 351.569121 83.401582 342.825018 70.587724 
L 288 108 
z
" style="fill: #ff7f0e"/>
   </g>
   <g id="patch_10">
    <path d="M 342.825018 70.587724 
C 338.703111 64.547363 333.611147 59.229513 327.755272 54.849465 
C 321.899397 50.469417 315.359714 47.087086 308.400978 44.839402 
L 288 108 
z
" style="fill: #2ca02c"/>
   </g>
   <g id="patch_11">
    <path d="M 308.400978 44.839402 
C 306.573575 44.249148 304.721415 43.738479 302.849729 43.308837 
C 300.978042 42.879195 299.088591 42.530985 297.186709 42.265189 
L 288 108 
z
" style="fill: #d62728"/>
   </g>
   <g id="patch_12">
    <path d="M 297.186709 42.265189 
C 295.665289 42.052564 294.136946 41.892823 292.604441 41.786254 
C 291.071937 41.679685 289.536194 41.626353 287.999988 41.626353 
L 288 108 
z
" style="fill: #9467bd"/>
   </g>
   <g id="matplotlib.axis_3"/>
   <g id="matplotlib.axis_4"/>
   <g id="text_11">
    <!-- 62.4 -->
    <g transform="translate(240.041458 125.919574) scale(0.1 -0.1)">
     <defs>
      <path id="DejaVuSans-36" d="M 2113 2584 
Q 1688 2584 1439 2293 
Q 1191 2003 1191 1497 
Q 1191 994 1439 701 
Q 1688 409 2113 409 
Q 2538 409 2786 701 
Q 3034 994 3034 1497 
Q 3034 2003 2786 2293 
Q 2538 2584 2113 2584 
z
M 3366 4563 
L 3366 3988 
Q 3128 4100 2886 4159 
Q 2644 4219 2406 4219 
Q 1781 4219 1451 3797 
Q 1122 3375 1075 2522 
Q 1259 2794 1537 2939 
Q 1816 3084 2150 3084 
Q 2853 3084 3261 2657 
Q 3669 2231 3669 1497 
Q 3669 778 3244 343 
Q 2819 -91 2113 -91 
Q 1303 -91 875 529 
Q 447 1150 447 2328 
Q 447 3434 972 4092 
Q 1497 4750 2381 4750 
Q 2619 4750 2861 4703 
Q 3103 4656 3366 4563 
z
" transform="scale(0.015625)"/>
     </defs>
     <use xlink:href="#DejaVuSans-36"/>
     <use xlink:href="#DejaVuSans-32" x="63.623047"/>
     <use xlink:href="#DejaVuSans-2e" x="127.246094"/>
     <use xlink:href="#DejaVuSans-34" x="159.033203"/>
    </g>
   </g>
   <g id="text_12">
    <!-- 22.1 -->
    <g transform="translate(316.510052 114.555324) scale(0.1 -0.1)">
     <use xlink:href="#DejaVuSans-32"/>
     <use xlink:href="#DejaVuSans-32" x="63.623047"/>
     <use xlink:href="#DejaVuSans-2e" x="127.246094"/>
     <use xlink:href="#DejaVuSans-31" x="159.033203"/>
    </g>
   </g>
   <g id="text_13">
    <!-- 10.5 -->
    <g transform="translate(300.720351 78.869054) scale(0.1 -0.1)">
     <use xlink:href="#DejaVuSans-31"/>
     <use xlink:href="#DejaVuSans-30" x="63.623047"/>
     <use xlink:href="#DejaVuSans-2e" x="127.246094"/>
     <use xlink:href="#DejaVuSans-35" x="159.033203"/>
    </g>
   </g>
   <g id="text_14">
    <!-- 2.8 -->
    <g transform="translate(288.958275 71.944677) scale(0.1 -0.1)">
     <defs>
      <path id="DejaVuSans-38" d="M 2034 2216 
Q 1584 2216 1326 1975 
Q 1069 1734 1069 1313 
Q 1069 891 1326 650 
Q 1584 409 2034 409 
Q 2484 409 2743 651 
Q 3003 894 3003 1313 
Q 3003 1734 2745 1975 
Q 2488 2216 2034 2216 
z
M 1403 2484 
Q 997 2584 770 2862 
Q 544 3141 544 3541 
Q 544 4100 942 4425 
Q 1341 4750 2034 4750 
Q 2731 4750 3128 4425 
Q 3525 4100 3525 3541 
Q 3525 3141 3298 2862 
Q 3072 2584 2669 2484 
Q 3125 2378 3379 2068 
Q 3634 1759 3634 1313 
Q 3634 634 3220 271 
Q 2806 -91 2034 -91 
Q 1263 -91 848 271 
Q 434 634 434 1313 
Q 434 1759 690 2068 
Q 947 2378 1403 2484 
z
M 1172 3481 
Q 1172 3119 1398 2916 
Q 1625 2713 2034 2713 
Q 2441 2713 2670 2916 
Q 2900 3119 2900 3481 
Q 2900 3844 2670 4047 
Q 2441 4250 2034 4250 
Q 1625 4250 1398 4047 
Q 1172 3844 1172 3481 
z
" transform="scale(0.015625)"/>
     </defs>
     <use xlink:href="#DejaVuSans-32"/>
     <use xlink:href="#DejaVuSans-2e" x="63.623047"/>
     <use xlink:href="#DejaVuSans-38" x="95.410156"/>
    </g>
   </g>
   <g id="text_15">
    <!-- 2.2 -->
    <g transform="translate(285.803989 27.992193) scale(0.1 -0.1)">
     <use xlink:href="#DejaVuSans-32"/>
     <use xlink:href="#DejaVuSans-2e" x="63.623047"/>
     <use xlink:href="#DejaVuSans-32" x="95.410156"/>
    </g>
   </g>
   <g id="legend_2">
    <g id="patch_13">
     <path d="M 218.403906 202.560471 
L 357.596094 202.560471 
Q 359.596094 202.560471 359.596094 200.560471 
L 359.596094 186.882346 
Q 359.596094 184.882346 357.596094 184.882346 
L 218.403906 184.882346 
Q 216.403906 184.882346 216.403906 186.882346 
L 216.403906 200.560471 
Q 216.403906 202.560471 218.403906 202.560471 
L 218.403906 202.560471 
z
" style="fill: none; opacity: 0"/>
    </g>
    <g id="line2d_6">
     <g>
      <use xlink:href="#m3115d65216" x="230.403906" y="192.980783" style="fill: #1f77b4; stroke: #1f77b4; stroke-linejoin: miter"/>
     </g>
    </g>
    <g id="text_16">
     <!-- 1 -->
     <g transform="translate(235.403906 196.480783) scale(0.1 -0.1)">
      <use xlink:href="#DejaVuSans-31"/>
     </g>
    </g>
    <g id="line2d_7">
     <g>
      <use xlink:href="#m27e0e19497" x="256.766406" y="192.980783" style="fill: #ff7f0e; stroke: #ff7f0e; stroke-linejoin: miter"/>
     </g>
    </g>
    <g id="text_17">
     <!-- 2 -->
     <g transform="translate(261.766406 196.480783) scale(0.1 -0.1)">
      <use xlink:href="#DejaVuSans-32"/>
     </g>
    </g>
    <g id="line2d_8">
     <g>
      <use xlink:href="#m25793ea601" x="283.128906" y="192.980783" style="fill: #2ca02c; stroke: #2ca02c; stroke-linejoin: miter"/>
     </g>
    </g>
    <g id="text_18">
     <!-- 3 -->
     <g transform="translate(288.128906 196.480783) scale(0.1 -0.1)">
      <use xlink:href="#DejaVuSans-33"/>
     </g>
    </g>
    <g id="line2d_9">
     <g>
      <use xlink:href="#m266cc1bd7c" x="309.491406" y="192.980783" style="fill: #d62728; stroke: #d62728; stroke-linejoin: miter"/>
     </g>
    </g>
    <g id="text_19">
     <!-- 4 -->
     <g transform="translate(314.491406 196.480783) scale(0.1 -0.1)">
      <use xlink:href="#DejaVuSans-34"/>
     </g>
    </g>
    <g id="line2d_10">
     <g>
      <use xlink:href="#m4a1674e6eb" x="335.853906" y="192.980783" style="fill: #9467bd; stroke: #9467bd; stroke-linejoin: miter"/>
     </g>
    </g>
    <g id="text_20">
     <!-- ≥5 -->
     <g transform="translate(340.853906 196.480783) scale(0.1 -0.1)">
      <use xlink:href="#DejaVuSans-2265"/>
      <use xlink:href="#DejaVuSans-35" x="83.789062"/>
     </g>
    </g>
   </g>
  </g>
  <g id="axes_3">
   <g id="patch_14">
    <path d="M 476.4 41.626353 
C 465.847175 41.626353 455.444937 44.143062 446.059207 48.966981 
C 436.673477 53.7909 428.572121 60.784355 422.429526 69.365185 
C 416.28693 77.946015 412.278404 87.869325 410.73763 98.309064 
C 409.196857 108.748802 410.16781 119.407021 413.569663 129.396491 
C 416.971517 139.385961 422.707183 148.421586 430.299204 155.751206 
C 437.891226 163.080826 447.122927 168.495257 457.225829 171.543782 
C 467.32873 174.592306 478.014498 175.18792 488.393608 173.281042 
C 498.772719 171.374163 508.548955 167.019216 516.908509 160.578719 
L 476.4 108 
z
" style="fill: #1f77b4"/>
   </g>
   <g id="patch_15">
    <path d="M 516.908509 160.578719 
C 524.747697 154.539131 531.137854 146.822131 535.609831 137.994282 
C 540.081808 129.166433 542.523419 119.449194 542.755406 109.55598 
L 476.4 108 
z
" style="fill: #ff7f0e"/>
   </g>
   <g id="patch_16">
    <path d="M 542.755406 109.55598 
C 542.864946 104.884603 542.480888 100.214691 541.609624 95.623976 
C 540.73836 91.033262 539.384752 86.547359 537.571331 82.240937 
L 476.4 108 
z
" style="fill: #2ca02c"/>
   </g>
   <g id="patch_17">
    <path d="M 537.571331 82.240937 
C 536.363005 79.371466 534.95427 76.590569 533.355566 73.918853 
C 531.756861 71.247138 529.972146 68.691221 528.014645 66.270042 
L 476.4 108 
z
" style="fill: #d62728"/>
   </g>
   <g id="patch_18">
    <path d="M 528.014645 66.270042 
C 521.792946 58.574592 513.928265 52.367097 504.998007 48.103297 
C 496.067749 43.839497 486.295943 41.626354 476.400009 41.626353 
L 476.4 108 
z
" style="fill: #9467bd"/>
   </g>
   <g id="matplotlib.axis_5"/>
   <g id="matplotlib.axis_6"/>
   <g id="text_21">
    <!-- 60.4 -->
    <g transform="translate(427.568986 123.59727) scale(0.1 -0.1)">
     <use xlink:href="#DejaVuSans-36"/>
     <use xlink:href="#DejaVuSans-30" x="63.623047"/>
     <use xlink:href="#DejaVuSans-2e" x="127.246094"/>
     <use xlink:href="#DejaVuSans-34" x="159.033203"/>
    </g>
   </g>
   <g id="text_22">
    <!-- 14.2 -->
    <g transform="translate(500.793086 128.755944) scale(0.1 -0.1)">
     <use xlink:href="#DejaVuSans-31"/>
     <use xlink:href="#DejaVuSans-34" x="63.623047"/>
     <use xlink:href="#DejaVuSans-2e" x="127.246094"/>
     <use xlink:href="#DejaVuSans-32" x="159.033203"/>
    </g>
   </g>
   <g id="text_23">
    <!-- 6.7 -->
    <g transform="translate(507.574212 103.333761) scale(0.1 -0.1)">
     <use xlink:href="#DejaVuSans-36"/>
     <use xlink:href="#DejaVuSans-2e" x="63.623047"/>
     <use xlink:href="#DejaVuSans-37" x="95.410156"/>
    </g>
   </g>
   <g id="text_24">
    <!-- 4.5 -->
    <g transform="translate(502.621777 90.310687) scale(0.1 -0.1)">
     <use xlink:href="#DejaVuSans-34"/>
     <use xlink:href="#DejaVuSans-2e" x="63.623047"/>
     <use xlink:href="#DejaVuSans-35" x="95.410156"/>
    </g>
   </g>
   <g id="text_25">
    <!-- 14.2 -->
    <g transform="translate(482.425992 74.821353) scale(0.1 -0.1)">
     <use xlink:href="#DejaVuSans-31"/>
     <use xlink:href="#DejaVuSans-34" x="63.623047"/>
     <use xlink:href="#DejaVuSans-2e" x="127.246094"/>
     <use xlink:href="#DejaVuSans-32" x="159.033203"/>
    </g>
   </g>
   <g id="legend_3">
    <g id="patch_19">
     <path d="M 406.803906 202.560471 
L 545.996094 202.560471 
Q 547.996094 202.560471 547.996094 200.560471 
L 547.996094 186.882346 
Q 547.996094 184.882346 545.996094 184.882346 
L 406.803906 184.882346 
Q 404.803906 184.882346 404.803906 186.882346 
L 404.803906 200.560471 
Q 404.803906 202.560471 406.803906 202.560471 
L 406.803906 202.560471 
z
" style="fill: none; opacity: 0"/>
    </g>
    <g id="line2d_11">
     <g>
      <use xlink:href="#m3115d65216" x="418.803906" y="192.980783" style="fill: #1f77b4; stroke: #1f77b4; stroke-linejoin: miter"/>
     </g>
    </g>
    <g id="text_26">
     <!-- 1 -->
     <g transform="translate(423.803906 196.480783) scale(0.1 -0.1)">
      <use xlink:href="#DejaVuSans-31"/>
     </g>
    </g>
    <g id="line2d_12">
     <g>
      <use xlink:href="#m27e0e19497" x="445.166406" y="192.980783" style="fill: #ff7f0e; stroke: #ff7f0e; stroke-linejoin: miter"/>
     </g>
    </g>
    <g id="text_27">
     <!-- 2 -->
     <g transform="translate(450.166406 196.480783) scale(0.1 -0.1)">
      <use xlink:href="#DejaVuSans-32"/>
     </g>
    </g>
    <g id="line2d_13">
     <g>
      <use xlink:href="#m25793ea601" x="471.528906" y="192.980783" style="fill: #2ca02c; stroke: #2ca02c; stroke-linejoin: miter"/>
     </g>
    </g>
    <g id="text_28">
     <!-- 3 -->
     <g transform="translate(476.528906 196.480783) scale(0.1 -0.1)">
      <use xlink:href="#DejaVuSans-33"/>
     </g>
    </g>
    <g id="line2d_14">
     <g>
      <use xlink:href="#m266cc1bd7c" x="497.891406" y="192.980783" style="fill: #d62728; stroke: #d62728; stroke-linejoin: miter"/>
     </g>
    </g>
    <g id="text_29">
     <!-- 4 -->
     <g transform="translate(502.891406 196.480783) scale(0.1 -0.1)">
      <use xlink:href="#DejaVuSans-34"/>
     </g>
    </g>
    <g id="line2d_15">
     <g>
      <use xlink:href="#m4a1674e6eb" x="524.253906" y="192.980783" style="fill: #9467bd; stroke: #9467bd; stroke-linejoin: miter"/>
     </g>
    </g>
    <g id="text_30">
     <!-- ≥5 -->
     <g transform="translate(529.253906 196.480783) scale(0.1 -0.1)">
      <use xlink:href="#DejaVuSans-2265"/>
      <use xlink:href="#DejaVuSans-35" x="83.789062"/>
     </g>
    </g>
   </g>
  </g>
 </g>
</svg>
