<?xml version="1.0" encoding="utf-8" standalone="no"?>
<!DOCTYPE svg PUBLIC "-//W3C//DTD SVG 1.1//EN"
  "http://www.w3.org/Graphics/SVG/1.1/DTD/svg11.dtd">
<svg xmlns:xlink="http://www.w3.org/1999/xlink" width="576pt" height="216pt" viewBox="0 0 576 216" xmlns="http://www.w3.org/2000/svg" version="1.1">
 <metadata>
  <rdf:RDF xmlns:dc="http://purl.org/dc/elements/1.1/" xmlns:cc="http://creativecommons.org/ns#" xmlns:rdf="http://www.w3.org/1999/02/22-rdf-syntax-ns#">
   <cc:Work>
    <dc:type rdf:resource="http://purl.org/dc/dcmitype/StillImage"/>
    <dc:date>2024-07-13T21:09:00.835865</dc:date>
    <dc:format>image/svg+xml</dc:format>
    <dc:creator>
     <cc:Agent>
      <dc:title>Matplotlib v3.8.1, https://matplotlib.org/</dc:title>
     </cc:Agent>
    </dc:creator>
   </cc:Work>
  </rdf:RDF>
 </metadata>
 <defs>
  <style type="text/css">*{stroke-linejoin: round; stroke-linecap: butt}</style>
 </defs>
 <g id="figure_1">
  <g id="patch_1">
   <path d="M 0 216 
L 576 216 
L 576 0 
L 0 0 
z
" style="fill: #ffffff"/>
  </g>
  <g id="axes_1">
   <g id="patch_2">
    <path d="M 99.6 41.626353 
C 87.27326 41.626353 75.186845 45.060288 64.701528 51.54154 
C 54.216211 58.022793 45.740839 67.298644 40.22963 78.324754 
C 34.718421 89.350863 32.38627 101.697296 33.495747 113.974005 
C 34.605223 126.250714 39.113067 137.979 46.511752 147.83841 
C 53.910437 157.69782 63.911471 165.303913 75.388868 169.800341 
C 86.866266 174.296769 99.372495 175.508205 111.499516 173.298258 
C 123.626537 171.088311 134.90149 165.543152 144.054959 157.287094 
C 153.208429 149.031035 159.883501 138.386001 163.328648 126.550483 
L 99.6 108 
z
" style="fill: #1f77b4"/>
   </g>
   <g id="patch_3">
    <path d="M 163.328648 126.550483 
C 166.530734 115.549984 166.830654 103.905543 164.199107 92.75479 
C 161.56756 81.604036 156.093129 71.322326 148.31065 62.914153 
L 99.6 108 
z
" style="fill: #ff7f0e"/>
   </g>
   <g id="patch_4">
    <path d="M 148.31065 62.914153 
C 144.435329 58.727265 140.036309 55.057445 135.222487 51.995541 
C 130.408664 48.933636 125.220092 46.505122 119.785214 44.770117 
L 99.6 108 
z
" style="fill: #2ca02c"/>
   </g>
   <g id="patch_5">
    <path d="M 119.785214 44.770117 
C 119.785214 44.770117 119.785214 44.770117 119.785214 44.770117 
L 99.6 108 
z
" style="fill: #d62728"/>
   </g>
   <g id="patch_6">
    <path d="M 119.785214 44.770117 
C 116.52716 43.730031 113.193585 42.943316 109.814282 42.417003 
C 106.434979 41.890691 103.020046 41.626353 99.600003 41.626353 
L 99.6 108 
z
" style="fill: #9467bd"/>
   </g>
   <g id="matplotlib.axis_1"/>
   <g id="matplotlib.axis_2"/>
   <g id="text_1">
    <!-- 70.5 -->
    <g transform="translate(56.614238 134.662421) scale(0.1 -0.1)">
     <defs>
      <path id="DejaVuSans-37" d="M 525 4666 
L 3525 4666 
L 3525 4397 
L 1831 0 
L 1172 0 
L 2766 4134 
L 525 4134 
L 525 4666 
z
" transform="scale(0.015625)"/>
      <path id="DejaVuSans-30" d="M 2034 4250 
Q 1547 4250 1301 3770 
Q 1056 3291 1056 2328 
Q 1056 1369 1301 889 
Q 1547 409 2034 409 
Q 2525 409 2770 889 
Q 3016 1369 3016 2328 
Q 3016 3291 2770 3770 
Q 2525 4250 2034 4250 
z
M 2034 4750 
Q 2819 4750 3233 4129 
Q 3647 3509 3647 2328 
Q 3647 1150 3233 529 
Q 2819 -91 2034 -91 
Q 1250 -91 836 529 
Q 422 1150 422 2328 
Q 422 3509 836 4129 
Q 1250 4750 2034 4750 
z
" transform="scale(0.015625)"/>
      <path id="DejaVuSans-2e" d="M 684 794 
L 1344 794 
L 1344 0 
L 684 0 
L 684 794 
z
" transform="scale(0.015625)"/>
      <path id="DejaVuSans-35" d="M 691 4666 
L 3169 4666 
L 3169 4134 
L 1269 4134 
L 1269 2991 
Q 1406 3038 1543 3061 
Q 1681 3084 1819 3084 
Q 2600 3084 3056 2656 
Q 3513 2228 3513 1497 
Q 3513 744 3044 326 
Q 2575 -91 1722 -91 
Q 1428 -91 1123 -41 
Q 819 9 494 109 
L 494 744 
Q 775 591 1075 516 
Q 1375 441 1709 441 
Q 2250 441 2565 725 
Q 2881 1009 2881 1497 
Q 2881 1984 2565 2268 
Q 2250 2553 1709 2553 
Q 1456 2553 1204 2497 
Q 953 2441 691 2322 
L 691 4666 
z
" transform="scale(0.015625)"/>
     </defs>
     <use xlink:href="#DejaVuSans-37"/>
     <use xlink:href="#DejaVuSans-30" x="63.623047"/>
     <use xlink:href="#DejaVuSans-2e" x="127.246094"/>
     <use xlink:href="#DejaVuSans-35" x="159.033203"/>
    </g>
   </g>
   <g id="text_2">
    <!-- 16.4 -->
    <g transform="translate(127.226652 101.612249) scale(0.1 -0.1)">
     <defs>
      <path id="DejaVuSans-31" d="M 794 531 
L 1825 531 
L 1825 4091 
L 703 3866 
L 703 4441 
L 1819 4666 
L 2450 4666 
L 2450 531 
L 3481 531 
L 3481 0 
L 794 0 
L 794 531 
z
" transform="scale(0.015625)"/>
      <path id="DejaVuSans-36" d="M 2113 2584 
Q 1688 2584 1439 2293 
Q 1191 2003 1191 1497 
Q 1191 994 1439 701 
Q 1688 409 2113 409 
Q 2538 409 2786 701 
Q 3034 994 3034 1497 
Q 3034 2003 2786 2293 
Q 2538 2584 2113 2584 
z
M 3366 4563 
L 3366 3988 
Q 3128 4100 2886 4159 
Q 2644 4219 2406 4219 
Q 1781 4219 1451 3797 
Q 1122 3375 1075 2522 
Q 1259 2794 1537 2939 
Q 1816 3084 2150 3084 
Q 2853 3084 3261 2657 
Q 3669 2231 3669 1497 
Q 3669 778 3244 343 
Q 2819 -91 2113 -91 
Q 1303 -91 875 529 
Q 447 1150 447 2328 
Q 447 3434 972 4092 
Q 1497 4750 2381 4750 
Q 2619 4750 2861 4703 
Q 3103 4656 3366 4563 
z
" transform="scale(0.015625)"/>
      <path id="DejaVuSans-34" d="M 2419 4116 
L 825 1625 
L 2419 1625 
L 2419 4116 
z
M 2253 4666 
L 3047 4666 
L 3047 1625 
L 3713 1625 
L 3713 1100 
L 3047 1100 
L 3047 0 
L 2419 0 
L 2419 1100 
L 313 1100 
L 313 1709 
L 2253 4666 
z
" transform="scale(0.015625)"/>
     </defs>
     <use xlink:href="#DejaVuSans-31"/>
     <use xlink:href="#DejaVuSans-36" x="63.623047"/>
     <use xlink:href="#DejaVuSans-2e" x="127.246094"/>
     <use xlink:href="#DejaVuSans-34" x="159.033203"/>
    </g>
   </g>
   <g id="text_3">
    <!-- 8.2 -->
    <g transform="translate(113.021929 77.156699) scale(0.1 -0.1)">
     <defs>
      <path id="DejaVuSans-38" d="M 2034 2216 
Q 1584 2216 1326 1975 
Q 1069 1734 1069 1313 
Q 1069 891 1326 650 
Q 1584 409 2034 409 
Q 2484 409 2743 651 
Q 3003 894 3003 1313 
Q 3003 1734 2745 1975 
Q 2488 2216 2034 2216 
z
M 1403 2484 
Q 997 2584 770 2862 
Q 544 3141 544 3541 
Q 544 4100 942 4425 
Q 1341 4750 2034 4750 
Q 2731 4750 3128 4425 
Q 3525 4100 3525 3541 
Q 3525 3141 3298 2862 
Q 3072 2584 2669 2484 
Q 3125 2378 3379 2068 
Q 3634 1759 3634 1313 
Q 3634 634 3220 271 
Q 2806 -91 2034 -91 
Q 1263 -91 848 271 
Q 434 634 434 1313 
Q 434 1759 690 2068 
Q 947 2378 1403 2484 
z
M 1172 3481 
Q 1172 3119 1398 2916 
Q 1625 2713 2034 2713 
Q 2441 2713 2670 2916 
Q 2900 3119 2900 3481 
Q 2900 3844 2670 4047 
Q 2441 4250 2034 4250 
Q 1625 4250 1398 4047 
Q 1172 3844 1172 3481 
z
" transform="scale(0.015625)"/>
      <path id="DejaVuSans-32" d="M 1228 531 
L 3431 531 
L 3431 0 
L 469 0 
L 469 531 
Q 828 903 1448 1529 
Q 2069 2156 2228 2338 
Q 2531 2678 2651 2914 
Q 2772 3150 2772 3378 
Q 2772 3750 2511 3984 
Q 2250 4219 1831 4219 
Q 1534 4219 1204 4116 
Q 875 4013 500 3803 
L 500 4441 
Q 881 4594 1212 4672 
Q 1544 4750 1819 4750 
Q 2544 4750 2975 4387 
Q 3406 4025 3406 3419 
Q 3406 3131 3298 2873 
Q 3191 2616 2906 2266 
Q 2828 2175 2409 1742 
Q 1991 1309 1228 531 
z
" transform="scale(0.015625)"/>
     </defs>
     <use xlink:href="#DejaVuSans-38"/>
     <use xlink:href="#DejaVuSans-2e" x="63.623047"/>
     <use xlink:href="#DejaVuSans-32" x="95.410156"/>
    </g>
   </g>
   <g id="text_4">
    <!-- 0.0 -->
    <g transform="translate(103.759566 72.821445) scale(0.1 -0.1)">
     <use xlink:href="#DejaVuSans-30"/>
     <use xlink:href="#DejaVuSans-2e" x="63.623047"/>
     <use xlink:href="#DejaVuSans-30" x="95.410156"/>
    </g>
   </g>
   <g id="text_5">
    <!-- 4.9 -->
    <g transform="translate(104.41629 28.780629) scale(0.1 -0.1)">
     <defs>
      <path id="DejaVuSans-39" d="M 703 97 
L 703 672 
Q 941 559 1184 500 
Q 1428 441 1663 441 
Q 2288 441 2617 861 
Q 2947 1281 2994 2138 
Q 2813 1869 2534 1725 
Q 2256 1581 1919 1581 
Q 1219 1581 811 2004 
Q 403 2428 403 3163 
Q 403 3881 828 4315 
Q 1253 4750 1959 4750 
Q 2769 4750 3195 4129 
Q 3622 3509 3622 2328 
Q 3622 1225 3098 567 
Q 2575 -91 1691 -91 
Q 1453 -91 1209 -44 
Q 966 3 703 97 
z
M 1959 2075 
Q 2384 2075 2632 2365 
Q 2881 2656 2881 3163 
Q 2881 3666 2632 3958 
Q 2384 4250 1959 4250 
Q 1534 4250 1286 3958 
Q 1038 3666 1038 3163 
Q 1038 2656 1286 2365 
Q 1534 2075 1959 2075 
z
" transform="scale(0.015625)"/>
     </defs>
     <use xlink:href="#DejaVuSans-34"/>
     <use xlink:href="#DejaVuSans-2e" x="63.623047"/>
     <use xlink:href="#DejaVuSans-39" x="95.410156"/>
    </g>
   </g>
   <g id="legend_1">
    <g id="patch_7">
     <path d="M 30.003906 202.560471 
L 169.196094 202.560471 
Q 171.196094 202.560471 171.196094 200.560471 
L 171.196094 186.882346 
Q 171.196094 184.882346 169.196094 184.882346 
L 30.003906 184.882346 
Q 28.003906 184.882346 28.003906 186.882346 
L 28.003906 200.560471 
Q 28.003906 202.560471 30.003906 202.560471 
L 30.003906 202.560471 
z
" style="fill: none; opacity: 0"/>
    </g>
    <g id="line2d_1">
     <defs>
      <path id="mae0deae51f" d="M -1.5 1.5 
L 1.5 1.5 
L 1.5 -1.5 
L -1.5 -1.5 
z
" style="stroke: #1f77b4; stroke-linejoin: miter"/>
     </defs>
     <g>
      <use xlink:href="#mae0deae51f" x="42.003906" y="192.980783" style="fill: #1f77b4; stroke: #1f77b4; stroke-linejoin: miter"/>
     </g>
    </g>
    <g id="text_6">
     <!-- 1 -->
     <g transform="translate(47.003906 196.480783) scale(0.1 -0.1)">
      <use xlink:href="#DejaVuSans-31"/>
     </g>
    </g>
    <g id="line2d_2">
     <defs>
      <path id="m42f2837e28" d="M -1.5 1.5 
L 1.5 1.5 
L 1.5 -1.5 
L -1.5 -1.5 
z
" style="stroke: #ff7f0e; stroke-linejoin: miter"/>
     </defs>
     <g>
      <use xlink:href="#m42f2837e28" x="68.366406" y="192.980783" style="fill: #ff7f0e; stroke: #ff7f0e; stroke-linejoin: miter"/>
     </g>
    </g>
    <g id="text_7">
     <!-- 2 -->
     <g transform="translate(73.366406 196.480783) scale(0.1 -0.1)">
      <use xlink:href="#DejaVuSans-32"/>
     </g>
    </g>
    <g id="line2d_3">
     <defs>
      <path id="mec422d1f15" d="M -1.5 1.5 
L 1.5 1.5 
L 1.5 -1.5 
L -1.5 -1.5 
z
" style="stroke: #2ca02c; stroke-linejoin: miter"/>
     </defs>
     <g>
      <use xlink:href="#mec422d1f15" x="94.728906" y="192.980783" style="fill: #2ca02c; stroke: #2ca02c; stroke-linejoin: miter"/>
     </g>
    </g>
    <g id="text_8">
     <!-- 3 -->
     <g transform="translate(99.728906 196.480783) scale(0.1 -0.1)">
      <defs>
       <path id="DejaVuSans-33" d="M 2597 2516 
Q 3050 2419 3304 2112 
Q 3559 1806 3559 1356 
Q 3559 666 3084 287 
Q 2609 -91 1734 -91 
Q 1441 -91 1130 -33 
Q 819 25 488 141 
L 488 750 
Q 750 597 1062 519 
Q 1375 441 1716 441 
Q 2309 441 2620 675 
Q 2931 909 2931 1356 
Q 2931 1769 2642 2001 
Q 2353 2234 1838 2234 
L 1294 2234 
L 1294 2753 
L 1863 2753 
Q 2328 2753 2575 2939 
Q 2822 3125 2822 3475 
Q 2822 3834 2567 4026 
Q 2313 4219 1838 4219 
Q 1578 4219 1281 4162 
Q 984 4106 628 3988 
L 628 4550 
Q 988 4650 1302 4700 
Q 1616 4750 1894 4750 
Q 2613 4750 3031 4423 
Q 3450 4097 3450 3541 
Q 3450 3153 3228 2886 
Q 3006 2619 2597 2516 
z
" transform="scale(0.015625)"/>
      </defs>
      <use xlink:href="#DejaVuSans-33"/>
     </g>
    </g>
    <g id="line2d_4">
     <defs>
      <path id="m5d71bc7b4a" d="M -1.5 1.5 
L 1.5 1.5 
L 1.5 -1.5 
L -1.5 -1.5 
z
" style="stroke: #d62728; stroke-linejoin: miter"/>
     </defs>
     <g>
      <use xlink:href="#m5d71bc7b4a" x="121.091406" y="192.980783" style="fill: #d62728; stroke: #d62728; stroke-linejoin: miter"/>
     </g>
    </g>
    <g id="text_9">
     <!-- 4 -->
     <g transform="translate(126.091406 196.480783) scale(0.1 -0.1)">
      <use xlink:href="#DejaVuSans-34"/>
     </g>
    </g>
    <g id="line2d_5">
     <defs>
      <path id="m9f0af2c20b" d="M -1.5 1.5 
L 1.5 1.5 
L 1.5 -1.5 
L -1.5 -1.5 
z
" style="stroke: #9467bd; stroke-linejoin: miter"/>
     </defs>
     <g>
      <use xlink:href="#m9f0af2c20b" x="147.453906" y="192.980783" style="fill: #9467bd; stroke: #9467bd; stroke-linejoin: miter"/>
     </g>
    </g>
    <g id="text_10">
     <!-- ≥5 -->
     <g transform="translate(152.453906 196.480783) scale(0.1 -0.1)">
      <defs>
       <path id="DejaVuSans-2265" d="M 678 3175 
L 678 3725 
L 4684 2578 
L 4684 2047 
L 678 897 
L 678 1453 
L 3681 2309 
L 678 3175 
z
M 4684 531 
L 4684 0 
L 678 0 
L 678 531 
L 4684 531 
z
" transform="scale(0.015625)"/>
      </defs>
      <use xlink:href="#DejaVuSans-2265"/>
      <use xlink:href="#DejaVuSans-35" x="83.789062"/>
     </g>
    </g>
   </g>
  </g>
  <g id="axes_2">
   <g id="patch_8">
    <path d="M 288 41.626353 
C 280.359902 41.626353 272.776852 42.945501 265.585582 45.525566 
C 258.394312 48.105632 251.702216 51.908085 245.804697 56.765076 
C 239.907178 61.622068 234.892308 67.461065 230.981456 74.024322 
C 227.070604 80.587578 224.322173 87.77708 222.857485 95.275465 
C 221.392797 102.773851 221.233725 110.469142 222.387291 118.02165 
C 223.540857 125.574159 225.989834 132.871097 229.626119 139.590363 
C 233.262404 146.309629 238.031692 152.350878 243.723458 157.447435 
C 249.415224 162.543993 255.944467 166.619749 263.022973 169.49479 
C 270.101478 172.36983 277.623537 174.001221 285.257109 174.316948 
C 292.89068 174.632675 300.521767 173.628024 307.813515 171.347341 
C 315.105263 169.066659 321.948779 165.544005 328.041975 160.934878 
C 334.135171 156.32575 339.387053 150.69898 343.565791 144.302946 
C 347.744529 137.906912 350.787718 130.837132 352.561026 123.40568 
C 354.334334 115.974227 354.811278 108.292084 353.970804 100.698356 
C 353.130331 93.104628 350.984992 85.712719 347.629487 78.848924 
C 344.273983 71.985128 339.758423 65.751949 334.282134 60.424533 
L 288 108 
z
" style="fill: #1f77b4"/>
   </g>
   <g id="patch_9">
    <path d="M 334.282134 60.424533 
C 329.904976 56.166367 324.961028 52.532578 319.590367 49.626121 
C 314.219706 46.719664 308.473537 44.568251 302.514665 43.232836 
L 288 108 
z
" style="fill: #ff7f0e"/>
   </g>
   <g id="patch_10">
    <path d="M 302.514665 43.232836 
C 301.324694 42.966157 300.1276 42.732324 298.924746 42.531604 
C 297.721892 42.330883 296.513735 42.16335 295.30165 42.029196 
L 288 108 
z
" style="fill: #2ca02c"/>
   </g>
   <g id="patch_11">
    <path d="M 295.30165 42.029196 
C 294.089565 41.895043 292.874013 41.794319 291.656379 41.72714 
C 290.438744 41.659962 289.219489 41.626353 288.000003 41.626353 
L 288 108 
z
" style="fill: #d62728"/>
   </g>
   <g id="patch_12">
    <path d="M 288.000003 41.626353 
C 288.000003 41.626353 288.000003 41.626353 288.000003 41.626353 
L 288 108 
z
" style="fill: #9467bd"/>
   </g>
   <g id="matplotlib.axis_3"/>
   <g id="matplotlib.axis_4"/>
   <g id="text_11">
    <!-- 87.7 -->
    <g transform="translate(261.880971 147.656249) scale(0.1 -0.1)">
     <use xlink:href="#DejaVuSans-38"/>
     <use xlink:href="#DejaVuSans-37" x="63.623047"/>
     <use xlink:href="#DejaVuSans-2e" x="127.246094"/>
     <use xlink:href="#DejaVuSans-37" x="159.033203"/>
    </g>
   </g>
   <g id="text_12">
    <!-- 8.8 -->
    <g transform="translate(299.002658 75.735048) scale(0.1 -0.1)">
     <use xlink:href="#DejaVuSans-38"/>
     <use xlink:href="#DejaVuSans-2e" x="63.623047"/>
     <use xlink:href="#DejaVuSans-38" x="95.410156"/>
    </g>
   </g>
   <g id="text_13">
    <!-- 1.8 -->
    <g transform="translate(286.603285 71.478337) scale(0.1 -0.1)">
     <use xlink:href="#DejaVuSans-31"/>
     <use xlink:href="#DejaVuSans-2e" x="63.623047"/>
     <use xlink:href="#DejaVuSans-38" x="95.410156"/>
    </g>
   </g>
   <g id="text_14">
    <!-- 1.8 -->
    <g transform="translate(284.618911 27.918301) scale(0.1 -0.1)">
     <use xlink:href="#DejaVuSans-31"/>
     <use xlink:href="#DejaVuSans-2e" x="63.623047"/>
     <use xlink:href="#DejaVuSans-38" x="95.410156"/>
    </g>
   </g>
   <g id="text_15">
    <!-- 0.0 -->
    <g transform="translate(280.048441 27.792316) scale(0.1 -0.1)">
     <use xlink:href="#DejaVuSans-30"/>
     <use xlink:href="#DejaVuSans-2e" x="63.623047"/>
     <use xlink:href="#DejaVuSans-30" x="95.410156"/>
    </g>
   </g>
   <g id="legend_2">
    <g id="patch_13">
     <path d="M 218.403906 202.560471 
L 357.596094 202.560471 
Q 359.596094 202.560471 359.596094 200.560471 
L 359.596094 186.882346 
Q 359.596094 184.882346 357.596094 184.882346 
L 218.403906 184.882346 
Q 216.403906 184.882346 216.403906 186.882346 
L 216.403906 200.560471 
Q 216.403906 202.560471 218.403906 202.560471 
L 218.403906 202.560471 
z
" style="fill: none; opacity: 0"/>
    </g>
    <g id="line2d_6">
     <g>
      <use xlink:href="#mae0deae51f" x="230.403906" y="192.980783" style="fill: #1f77b4; stroke: #1f77b4; stroke-linejoin: miter"/>
     </g>
    </g>
    <g id="text_16">
     <!-- 1 -->
     <g transform="translate(235.403906 196.480783) scale(0.1 -0.1)">
      <use xlink:href="#DejaVuSans-31"/>
     </g>
    </g>
    <g id="line2d_7">
     <g>
      <use xlink:href="#m42f2837e28" x="256.766406" y="192.980783" style="fill: #ff7f0e; stroke: #ff7f0e; stroke-linejoin: miter"/>
     </g>
    </g>
    <g id="text_17">
     <!-- 2 -->
     <g transform="translate(261.766406 196.480783) scale(0.1 -0.1)">
      <use xlink:href="#DejaVuSans-32"/>
     </g>
    </g>
    <g id="line2d_8">
     <g>
      <use xlink:href="#mec422d1f15" x="283.128906" y="192.980783" style="fill: #2ca02c; stroke: #2ca02c; stroke-linejoin: miter"/>
     </g>
    </g>
    <g id="text_18">
     <!-- 3 -->
     <g transform="translate(288.128906 196.480783) scale(0.1 -0.1)">
      <use xlink:href="#DejaVuSans-33"/>
     </g>
    </g>
    <g id="line2d_9">
     <g>
      <use xlink:href="#m5d71bc7b4a" x="309.491406" y="192.980783" style="fill: #d62728; stroke: #d62728; stroke-linejoin: miter"/>
     </g>
    </g>
    <g id="text_19">
     <!-- 4 -->
     <g transform="translate(314.491406 196.480783) scale(0.1 -0.1)">
      <use xlink:href="#DejaVuSans-34"/>
     </g>
    </g>
    <g id="line2d_10">
     <g>
      <use xlink:href="#m9f0af2c20b" x="335.853906" y="192.980783" style="fill: #9467bd; stroke: #9467bd; stroke-linejoin: miter"/>
     </g>
    </g>
    <g id="text_20">
     <!-- ≥5 -->
     <g transform="translate(340.853906 196.480783) scale(0.1 -0.1)">
      <use xlink:href="#DejaVuSans-2265"/>
      <use xlink:href="#DejaVuSans-35" x="83.789062"/>
     </g>
    </g>
   </g>
  </g>
  <g id="axes_3">
   <g id="patch_14">
    <path d="M 476.4 41.626353 
C 466.885775 41.626353 457.481833 43.672055 448.82739 47.624407 
C 440.172946 51.576759 432.468636 57.344134 426.238143 64.534506 
C 420.007651 71.724878 415.395418 80.171553 412.714951 89.300385 
C 410.034485 98.429217 409.347926 108.028574 410.701941 117.445958 
C 412.055957 126.863342 415.419158 135.880431 420.562937 143.884306 
C 425.706716 151.888182 432.511826 158.69329 440.515701 163.837068 
C 448.519577 168.980846 457.536667 172.344045 466.954051 173.69806 
C 476.371435 175.052074 485.970792 174.365514 495.099624 171.685046 
L 476.4 108 
z
" style="fill: #1f77b4"/>
   </g>
   <g id="patch_15">
    <path d="M 495.099624 171.685046 
C 510.415695 167.18784 523.606999 157.312951 532.23707 143.884296 
C 540.86714 130.455641 544.369785 114.35423 542.098058 98.554036 
L 476.4 108 
z
" style="fill: #ff7f0e"/>
   </g>
   <g id="patch_16">
    <path d="M 542.098058 98.554036 
C 540.679042 88.684573 537.054143 79.260551 531.493454 70.98416 
C 525.932765 62.707769 518.577913 55.789804 509.976914 50.745726 
L 476.4 108 
z
" style="fill: #2ca02c"/>
   </g>
   <g id="patch_17">
    <path d="M 509.976914 50.745726 
C 506.08026 48.460524 501.960474 46.579081 497.681667 45.130678 
C 493.40286 43.682274 488.987343 42.674462 484.503833 42.122926 
L 476.4 108 
z
" style="fill: #d62728"/>
   </g>
   <g id="patch_18">
    <path d="M 484.503833 42.122926 
C 483.159839 41.957595 481.8111 41.833432 480.45951 41.750612 
C 479.10792 41.667792 477.754112 41.626353 476.399988 41.626353 
L 476.4 108 
z
" style="fill: #9467bd"/>
   </g>
   <g id="matplotlib.axis_5"/>
   <g id="matplotlib.axis_6"/>
   <g id="text_21">
    <!-- 54.5 -->
    <g transform="translate(425.848352 116.42695) scale(0.1 -0.1)">
     <use xlink:href="#DejaVuSans-35"/>
     <use xlink:href="#DejaVuSans-34" x="63.623047"/>
     <use xlink:href="#DejaVuSans-2e" x="127.246094"/>
     <use xlink:href="#DejaVuSans-35" x="159.033203"/>
    </g>
   </g>
   <g id="text_22">
    <!-- 22.7 -->
    <g transform="translate(498.769429 132.289953) scale(0.1 -0.1)">
     <use xlink:href="#DejaVuSans-32"/>
     <use xlink:href="#DejaVuSans-32" x="63.623047"/>
     <use xlink:href="#DejaVuSans-2e" x="127.246094"/>
     <use xlink:href="#DejaVuSans-37" x="159.033203"/>
    </g>
   </g>
   <g id="text_23">
    <!-- 14.3 -->
    <g transform="translate(498.32326 88.549871) scale(0.1 -0.1)">
     <use xlink:href="#DejaVuSans-31"/>
     <use xlink:href="#DejaVuSans-34" x="63.623047"/>
     <use xlink:href="#DejaVuSans-2e" x="127.246094"/>
     <use xlink:href="#DejaVuSans-33" x="159.033203"/>
    </g>
   </g>
   <g id="text_24">
    <!-- 6.5 -->
    <g transform="translate(481.217438 73.037782) scale(0.1 -0.1)">
     <use xlink:href="#DejaVuSans-36"/>
     <use xlink:href="#DejaVuSans-2e" x="63.623047"/>
     <use xlink:href="#DejaVuSans-35" x="95.410156"/>
    </g>
   </g>
   <g id="text_25">
    <!-- 1.9 -->
    <g transform="translate(470.884143 71.009742) scale(0.1 -0.1)">
     <use xlink:href="#DejaVuSans-31"/>
     <use xlink:href="#DejaVuSans-2e" x="63.623047"/>
     <use xlink:href="#DejaVuSans-39" x="95.410156"/>
    </g>
   </g>
   <g id="legend_3">
    <g id="patch_19">
     <path d="M 406.803906 202.560471 
L 545.996094 202.560471 
Q 547.996094 202.560471 547.996094 200.560471 
L 547.996094 186.882346 
Q 547.996094 184.882346 545.996094 184.882346 
L 406.803906 184.882346 
Q 404.803906 184.882346 404.803906 186.882346 
L 404.803906 200.560471 
Q 404.803906 202.560471 406.803906 202.560471 
L 406.803906 202.560471 
z
" style="fill: none; opacity: 0"/>
    </g>
    <g id="line2d_11">
     <g>
      <use xlink:href="#mae0deae51f" x="418.803906" y="192.980783" style="fill: #1f77b4; stroke: #1f77b4; stroke-linejoin: miter"/>
     </g>
    </g>
    <g id="text_26">
     <!-- 1 -->
     <g transform="translate(423.803906 196.480783) scale(0.1 -0.1)">
      <use xlink:href="#DejaVuSans-31"/>
     </g>
    </g>
    <g id="line2d_12">
     <g>
      <use xlink:href="#m42f2837e28" x="445.166406" y="192.980783" style="fill: #ff7f0e; stroke: #ff7f0e; stroke-linejoin: miter"/>
     </g>
    </g>
    <g id="text_27">
     <!-- 2 -->
     <g transform="translate(450.166406 196.480783) scale(0.1 -0.1)">
      <use xlink:href="#DejaVuSans-32"/>
     </g>
    </g>
    <g id="line2d_13">
     <g>
      <use xlink:href="#mec422d1f15" x="471.528906" y="192.980783" style="fill: #2ca02c; stroke: #2ca02c; stroke-linejoin: miter"/>
     </g>
    </g>
    <g id="text_28">
     <!-- 3 -->
     <g transform="translate(476.528906 196.480783) scale(0.1 -0.1)">
      <use xlink:href="#DejaVuSans-33"/>
     </g>
    </g>
    <g id="line2d_14">
     <g>
      <use xlink:href="#m5d71bc7b4a" x="497.891406" y="192.980783" style="fill: #d62728; stroke: #d62728; stroke-linejoin: miter"/>
     </g>
    </g>
    <g id="text_29">
     <!-- 4 -->
     <g transform="translate(502.891406 196.480783) scale(0.1 -0.1)">
      <use xlink:href="#DejaVuSans-34"/>
     </g>
    </g>
    <g id="line2d_15">
     <g>
      <use xlink:href="#m9f0af2c20b" x="524.253906" y="192.980783" style="fill: #9467bd; stroke: #9467bd; stroke-linejoin: miter"/>
     </g>
    </g>
    <g id="text_30">
     <!-- ≥5 -->
     <g transform="translate(529.253906 196.480783) scale(0.1 -0.1)">
      <use xlink:href="#DejaVuSans-2265"/>
      <use xlink:href="#DejaVuSans-35" x="83.789062"/>
     </g>
    </g>
   </g>
  </g>
 </g>
</svg>
