<?xml version="1.0" encoding="utf-8" standalone="no"?>
<!DOCTYPE svg PUBLIC "-//W3C//DTD SVG 1.1//EN"
  "http://www.w3.org/Graphics/SVG/1.1/DTD/svg11.dtd">
<svg xmlns:xlink="http://www.w3.org/1999/xlink" width="576pt" height="216pt" viewBox="0 0 576 216" xmlns="http://www.w3.org/2000/svg" version="1.1">
 <metadata>
  <rdf:RDF xmlns:dc="http://purl.org/dc/elements/1.1/" xmlns:cc="http://creativecommons.org/ns#" xmlns:rdf="http://www.w3.org/1999/02/22-rdf-syntax-ns#">
   <cc:Work>
    <dc:type rdf:resource="http://purl.org/dc/dcmitype/StillImage"/>
    <dc:date>2024-07-13T21:09:00.677366</dc:date>
    <dc:format>image/svg+xml</dc:format>
    <dc:creator>
     <cc:Agent>
      <dc:title>Matplotlib v3.8.1, https://matplotlib.org/</dc:title>
     </cc:Agent>
    </dc:creator>
   </cc:Work>
  </rdf:RDF>
 </metadata>
 <defs>
  <style type="text/css">*{stroke-linejoin: round; stroke-linecap: butt}</style>
 </defs>
 <g id="figure_1">
  <g id="patch_1">
   <path d="M 0 216 
L 576 216 
L 576 0 
L 0 0 
z
" style="fill: #ffffff"/>
  </g>
  <g id="axes_1">
   <g id="patch_2">
    <path d="M 99.6 41.626353 
C 92.014385 41.626353 84.484605 42.926754 77.338376 45.470958 
C 70.192148 48.015162 63.534672 51.765716 57.655702 56.559385 
C 51.776732 61.353054 46.762812 67.119269 42.832163 73.60707 
C 38.901513 80.09487 36.111998 87.208746 34.585025 94.639083 
C 33.058052 102.06942 32.8161 109.706835 33.869699 117.218924 
C 34.923298 124.731013 37.256938 132.00719 40.769052 138.730776 
C 44.281167 145.454362 48.920053 151.526378 54.483814 156.682551 
C 60.047574 161.838724 66.454304 166.00315 73.425164 168.994582 
C 80.396025 171.986013 87.828396 173.760413 95.3988 174.240554 
C 102.969204 174.720694 110.566196 173.899508 117.859133 171.812734 
C 125.15207 169.725961 132.033592 166.404321 138.204195 161.992381 
C 144.374798 157.58044 149.743643 152.143149 154.077064 145.917154 
C 158.410484 139.691158 161.644687 132.768112 163.63891 125.449326 
C 165.633134 118.13054 166.35802 110.523756 165.78202 102.960041 
C 165.206021 95.396326 163.337615 87.987028 160.258121 81.054621 
C 157.178626 74.122214 152.933377 67.768751 147.70714 62.270752 
L 99.6 108 
z
" style="fill: #1f77b4"/>
   </g>
   <g id="patch_3">
    <path d="M 147.70714 62.270752 
C 143.063954 57.386124 137.703783 53.237043 131.81126 49.966426 
C 125.918737 46.695809 119.562306 44.341645 112.960917 42.985025 
L 99.6 108 
z
" style="fill: #ff7f0e"/>
   </g>
   <g id="patch_4">
    <path d="M 112.960917 42.985025 
C 112.960917 42.985025 112.960917 42.985025 112.960917 42.985025 
L 99.6 108 
z
" style="fill: #2ca02c"/>
   </g>
   <g id="patch_5">
    <path d="M 112.960917 42.985025 
C 110.764204 42.533589 108.546023 42.193777 106.31491 41.966895 
C 104.083798 41.740013 101.842619 41.626353 99.6 41.626353 
L 99.6 108 
z
" style="fill: #d62728"/>
   </g>
   <g id="patch_6">
    <path d="M 99.6 41.626353 
C 99.6 41.626353 99.6 41.626353 99.6 41.626353 
L 99.6 108 
z
" style="fill: #9467bd"/>
   </g>
   <g id="matplotlib.axis_1"/>
   <g id="matplotlib.axis_2"/>
   <g id="text_1">
    <!-- 87.1 -->
    <g transform="translate(72.762286 147.356124) scale(0.1 -0.1)">
     <defs>
      <path id="DejaVuSans-38" d="M 2034 2216 
Q 1584 2216 1326 1975 
Q 1069 1734 1069 1313 
Q 1069 891 1326 650 
Q 1584 409 2034 409 
Q 2484 409 2743 651 
Q 3003 894 3003 1313 
Q 3003 1734 2745 1975 
Q 2488 2216 2034 2216 
z
M 1403 2484 
Q 997 2584 770 2862 
Q 544 3141 544 3541 
Q 544 4100 942 4425 
Q 1341 4750 2034 4750 
Q 2731 4750 3128 4425 
Q 3525 4100 3525 3541 
Q 3525 3141 3298 2862 
Q 3072 2584 2669 2484 
Q 3125 2378 3379 2068 
Q 3634 1759 3634 1313 
Q 3634 634 3220 271 
Q 2806 -91 2034 -91 
Q 1263 -91 848 271 
Q 434 634 434 1313 
Q 434 1759 690 2068 
Q 947 2378 1403 2484 
z
M 1172 3481 
Q 1172 3119 1398 2916 
Q 1625 2713 2034 2713 
Q 2441 2713 2670 2916 
Q 2900 3119 2900 3481 
Q 2900 3844 2670 4047 
Q 2441 4250 2034 4250 
Q 1625 4250 1398 4047 
Q 1172 3844 1172 3481 
z
" transform="scale(0.015625)"/>
      <path id="DejaVuSans-37" d="M 525 4666 
L 3525 4666 
L 3525 4397 
L 1831 0 
L 1172 0 
L 2766 4134 
L 525 4134 
L 525 4666 
z
" transform="scale(0.015625)"/>
      <path id="DejaVuSans-2e" d="M 684 794 
L 1344 794 
L 1344 0 
L 684 0 
L 684 794 
z
" transform="scale(0.015625)"/>
      <path id="DejaVuSans-31" d="M 794 531 
L 1825 531 
L 1825 4091 
L 703 3866 
L 703 4441 
L 1819 4666 
L 2450 4666 
L 2450 531 
L 3481 531 
L 3481 0 
L 794 0 
L 794 531 
z
" transform="scale(0.015625)"/>
     </defs>
     <use xlink:href="#DejaVuSans-38"/>
     <use xlink:href="#DejaVuSans-37" x="63.623047"/>
     <use xlink:href="#DejaVuSans-2e" x="127.246094"/>
     <use xlink:href="#DejaVuSans-31" x="159.033203"/>
    </g>
   </g>
   <g id="text_2">
    <!-- 9.7 -->
    <g transform="translate(110.975194 75.93923) scale(0.1 -0.1)">
     <defs>
      <path id="DejaVuSans-39" d="M 703 97 
L 703 672 
Q 941 559 1184 500 
Q 1428 441 1663 441 
Q 2288 441 2617 861 
Q 2947 1281 2994 2138 
Q 2813 1869 2534 1725 
Q 2256 1581 1919 1581 
Q 1219 1581 811 2004 
Q 403 2428 403 3163 
Q 403 3881 828 4315 
Q 1253 4750 1959 4750 
Q 2769 4750 3195 4129 
Q 3622 3509 3622 2328 
Q 3622 1225 3098 567 
Q 2575 -91 1691 -91 
Q 1453 -91 1209 -44 
Q 966 3 703 97 
z
M 1959 2075 
Q 2384 2075 2632 2365 
Q 2881 2656 2881 3163 
Q 2881 3666 2632 3958 
Q 2384 4250 1959 4250 
Q 1534 4250 1286 3958 
Q 1038 3666 1038 3163 
Q 1038 2656 1286 2365 
Q 1534 2075 1959 2075 
z
" transform="scale(0.015625)"/>
     </defs>
     <use xlink:href="#DejaVuSans-39"/>
     <use xlink:href="#DejaVuSans-2e" x="63.623047"/>
     <use xlink:href="#DejaVuSans-37" x="95.410156"/>
    </g>
   </g>
   <g id="text_3">
    <!-- 0.0 -->
    <g transform="translate(99.664987 71.75039) scale(0.1 -0.1)">
     <defs>
      <path id="DejaVuSans-30" d="M 2034 4250 
Q 1547 4250 1301 3770 
Q 1056 3291 1056 2328 
Q 1056 1369 1301 889 
Q 1547 409 2034 409 
Q 2525 409 2770 889 
Q 3016 1369 3016 2328 
Q 3016 3291 2770 3770 
Q 2525 4250 2034 4250 
z
M 2034 4750 
Q 2819 4750 3233 4129 
Q 3647 3509 3647 2328 
Q 3647 1150 3233 529 
Q 2819 -91 2034 -91 
Q 1250 -91 836 529 
Q 422 1150 422 2328 
Q 422 3509 836 4129 
Q 1250 4750 2034 4750 
z
" transform="scale(0.015625)"/>
     </defs>
     <use xlink:href="#DejaVuSans-30"/>
     <use xlink:href="#DejaVuSans-2e" x="63.623047"/>
     <use xlink:href="#DejaVuSans-30" x="95.410156"/>
    </g>
   </g>
   <g id="text_4">
    <!-- 3.2 -->
    <g transform="translate(100.042075 28.217993) scale(0.1 -0.1)">
     <defs>
      <path id="DejaVuSans-33" d="M 2597 2516 
Q 3050 2419 3304 2112 
Q 3559 1806 3559 1356 
Q 3559 666 3084 287 
Q 2609 -91 1734 -91 
Q 1441 -91 1130 -33 
Q 819 25 488 141 
L 488 750 
Q 750 597 1062 519 
Q 1375 441 1716 441 
Q 2309 441 2620 675 
Q 2931 909 2931 1356 
Q 2931 1769 2642 2001 
Q 2353 2234 1838 2234 
L 1294 2234 
L 1294 2753 
L 1863 2753 
Q 2328 2753 2575 2939 
Q 2822 3125 2822 3475 
Q 2822 3834 2567 4026 
Q 2313 4219 1838 4219 
Q 1578 4219 1281 4162 
Q 984 4106 628 3988 
L 628 4550 
Q 988 4650 1302 4700 
Q 1616 4750 1894 4750 
Q 2613 4750 3031 4423 
Q 3450 4097 3450 3541 
Q 3450 3153 3228 2886 
Q 3006 2619 2597 2516 
z
" transform="scale(0.015625)"/>
      <path id="DejaVuSans-32" d="M 1228 531 
L 3431 531 
L 3431 0 
L 469 0 
L 469 531 
Q 828 903 1448 1529 
Q 2069 2156 2228 2338 
Q 2531 2678 2651 2914 
Q 2772 3150 2772 3378 
Q 2772 3750 2511 3984 
Q 2250 4219 1831 4219 
Q 1534 4219 1204 4116 
Q 875 4013 500 3803 
L 500 4441 
Q 881 4594 1212 4672 
Q 1544 4750 1819 4750 
Q 2544 4750 2975 4387 
Q 3406 4025 3406 3419 
Q 3406 3131 3298 2873 
Q 3191 2616 2906 2266 
Q 2828 2175 2409 1742 
Q 1991 1309 1228 531 
z
" transform="scale(0.015625)"/>
     </defs>
     <use xlink:href="#DejaVuSans-33"/>
     <use xlink:href="#DejaVuSans-2e" x="63.623047"/>
     <use xlink:href="#DejaVuSans-32" x="95.410156"/>
    </g>
   </g>
   <g id="text_5">
    <!-- 0.0 -->
    <g transform="translate(91.648437 70.935187) scale(0.1 -0.1)">
     <use xlink:href="#DejaVuSans-30"/>
     <use xlink:href="#DejaVuSans-2e" x="63.623047"/>
     <use xlink:href="#DejaVuSans-30" x="95.410156"/>
    </g>
   </g>
   <g id="legend_1">
    <g id="patch_7">
     <path d="M 30.003906 202.560471 
L 169.196094 202.560471 
Q 171.196094 202.560471 171.196094 200.560471 
L 171.196094 186.882346 
Q 171.196094 184.882346 169.196094 184.882346 
L 30.003906 184.882346 
Q 28.003906 184.882346 28.003906 186.882346 
L 28.003906 200.560471 
Q 28.003906 202.560471 30.003906 202.560471 
L 30.003906 202.560471 
z
" style="fill: none; opacity: 0"/>
    </g>
    <g id="line2d_1">
     <defs>
      <path id="mb8c9022622" d="M -1.5 1.5 
L 1.5 1.5 
L 1.5 -1.5 
L -1.5 -1.5 
z
" style="stroke: #1f77b4; stroke-linejoin: miter"/>
     </defs>
     <g>
      <use xlink:href="#mb8c9022622" x="42.003906" y="192.980783" style="fill: #1f77b4; stroke: #1f77b4; stroke-linejoin: miter"/>
     </g>
    </g>
    <g id="text_6">
     <!-- 1 -->
     <g transform="translate(47.003906 196.480783) scale(0.1 -0.1)">
      <use xlink:href="#DejaVuSans-31"/>
     </g>
    </g>
    <g id="line2d_2">
     <defs>
      <path id="m844f479a97" d="M -1.5 1.5 
L 1.5 1.5 
L 1.5 -1.5 
L -1.5 -1.5 
z
" style="stroke: #ff7f0e; stroke-linejoin: miter"/>
     </defs>
     <g>
      <use xlink:href="#m844f479a97" x="68.366406" y="192.980783" style="fill: #ff7f0e; stroke: #ff7f0e; stroke-linejoin: miter"/>
     </g>
    </g>
    <g id="text_7">
     <!-- 2 -->
     <g transform="translate(73.366406 196.480783) scale(0.1 -0.1)">
      <use xlink:href="#DejaVuSans-32"/>
     </g>
    </g>
    <g id="line2d_3">
     <defs>
      <path id="mee4e1c7988" d="M -1.5 1.5 
L 1.5 1.5 
L 1.5 -1.5 
L -1.5 -1.5 
z
" style="stroke: #2ca02c; stroke-linejoin: miter"/>
     </defs>
     <g>
      <use xlink:href="#mee4e1c7988" x="94.728906" y="192.980783" style="fill: #2ca02c; stroke: #2ca02c; stroke-linejoin: miter"/>
     </g>
    </g>
    <g id="text_8">
     <!-- 3 -->
     <g transform="translate(99.728906 196.480783) scale(0.1 -0.1)">
      <use xlink:href="#DejaVuSans-33"/>
     </g>
    </g>
    <g id="line2d_4">
     <defs>
      <path id="ma534f1f855" d="M -1.5 1.5 
L 1.5 1.5 
L 1.5 -1.5 
L -1.5 -1.5 
z
" style="stroke: #d62728; stroke-linejoin: miter"/>
     </defs>
     <g>
      <use xlink:href="#ma534f1f855" x="121.091406" y="192.980783" style="fill: #d62728; stroke: #d62728; stroke-linejoin: miter"/>
     </g>
    </g>
    <g id="text_9">
     <!-- 4 -->
     <g transform="translate(126.091406 196.480783) scale(0.1 -0.1)">
      <defs>
       <path id="DejaVuSans-34" d="M 2419 4116 
L 825 1625 
L 2419 1625 
L 2419 4116 
z
M 2253 4666 
L 3047 4666 
L 3047 1625 
L 3713 1625 
L 3713 1100 
L 3047 1100 
L 3047 0 
L 2419 0 
L 2419 1100 
L 313 1100 
L 313 1709 
L 2253 4666 
z
" transform="scale(0.015625)"/>
      </defs>
      <use xlink:href="#DejaVuSans-34"/>
     </g>
    </g>
    <g id="line2d_5">
     <defs>
      <path id="m471004dc55" d="M -1.5 1.5 
L 1.5 1.5 
L 1.5 -1.5 
L -1.5 -1.5 
z
" style="stroke: #9467bd; stroke-linejoin: miter"/>
     </defs>
     <g>
      <use xlink:href="#m471004dc55" x="147.453906" y="192.980783" style="fill: #9467bd; stroke: #9467bd; stroke-linejoin: miter"/>
     </g>
    </g>
    <g id="text_10">
     <!-- ≥5 -->
     <g transform="translate(152.453906 196.480783) scale(0.1 -0.1)">
      <defs>
       <path id="DejaVuSans-2265" d="M 678 3175 
L 678 3725 
L 4684 2578 
L 4684 2047 
L 678 897 
L 678 1453 
L 3681 2309 
L 678 3175 
z
M 4684 531 
L 4684 0 
L 678 0 
L 678 531 
L 4684 531 
z
" transform="scale(0.015625)"/>
       <path id="DejaVuSans-35" d="M 691 4666 
L 3169 4666 
L 3169 4134 
L 1269 4134 
L 1269 2991 
Q 1406 3038 1543 3061 
Q 1681 3084 1819 3084 
Q 2600 3084 3056 2656 
Q 3513 2228 3513 1497 
Q 3513 744 3044 326 
Q 2575 -91 1722 -91 
Q 1428 -91 1123 -41 
Q 819 9 494 109 
L 494 744 
Q 775 591 1075 516 
Q 1375 441 1709 441 
Q 2250 441 2565 725 
Q 2881 1009 2881 1497 
Q 2881 1984 2565 2268 
Q 2250 2553 1709 2553 
Q 1456 2553 1204 2497 
Q 953 2441 691 2322 
L 691 4666 
z
" transform="scale(0.015625)"/>
      </defs>
      <use xlink:href="#DejaVuSans-2265"/>
      <use xlink:href="#DejaVuSans-35" x="83.789062"/>
     </g>
    </g>
   </g>
  </g>
  <g id="axes_2">
   <g id="patch_8">
    <path d="M 288 41.626353 
C 278.713955 41.626353 269.530434 43.575107 261.044643 47.346313 
C 252.558853 51.117518 244.95817 56.627902 238.735213 63.520321 
C 232.512257 70.412741 227.804439 78.535003 224.916883 87.360685 
C 222.029327 96.186366 221.025795 105.520584 221.971328 114.758365 
C 222.916861 123.996146 225.790581 132.933509 230.406235 140.991199 
C 235.021888 149.048889 241.277556 156.048984 248.767792 161.53779 
C 256.258029 167.026595 264.817441 170.882912 273.891271 172.856802 
C 282.9651 174.830692 292.352987 174.87857 301.446478 172.997333 
L 288 108 
z
" style="fill: #1f77b4"/>
   </g>
   <g id="patch_9">
    <path d="M 301.446478 172.997333 
C 316.926266 169.794915 330.764132 161.165491 340.451004 148.67374 
C 350.137877 136.18199 355.050623 120.631479 354.298468 104.841812 
L 288 108 
z
" style="fill: #ff7f0e"/>
   </g>
   <g id="patch_10">
    <path d="M 354.298468 104.841812 
C 353.853001 95.490325 351.433975 86.338037 347.2007 77.9877 
C 342.967425 69.637363 337.01492 62.276402 329.735204 56.389596 
L 288 108 
z
" style="fill: #2ca02c"/>
   </g>
   <g id="patch_11">
    <path d="M 329.735204 56.389596 
C 325.988049 53.359427 321.922007 50.74634 317.609044 48.596586 
C 313.29608 46.446832 308.761792 44.773169 304.086432 43.60522 
L 288 108 
z
" style="fill: #d62728"/>
   </g>
   <g id="patch_12">
    <path d="M 304.086432 43.60522 
C 301.458311 42.94869 298.792462 42.453666 296.103845 42.122927 
C 293.415228 41.792188 290.708883 41.626353 288 41.626353 
L 288 108 
z
" style="fill: #9467bd"/>
   </g>
   <g id="matplotlib.axis_3"/>
   <g id="matplotlib.axis_4"/>
   <g id="text_11">
    <!-- 53.2 -->
    <g transform="translate(237.249984 114.814394) scale(0.1 -0.1)">
     <use xlink:href="#DejaVuSans-35"/>
     <use xlink:href="#DejaVuSans-33" x="63.623047"/>
     <use xlink:href="#DejaVuSans-2e" x="127.246094"/>
     <use xlink:href="#DejaVuSans-32" x="159.033203"/>
    </g>
   </g>
   <g id="text_12">
    <!-- 22.5 -->
    <g transform="translate(308.33779 135.163619) scale(0.1 -0.1)">
     <use xlink:href="#DejaVuSans-32"/>
     <use xlink:href="#DejaVuSans-32" x="63.623047"/>
     <use xlink:href="#DejaVuSans-2e" x="127.246094"/>
     <use xlink:href="#DejaVuSans-35" x="159.033203"/>
    </g>
   </g>
   <g id="text_13">
    <!-- 13.4 -->
    <g transform="translate(312.387607 92.751995) scale(0.1 -0.1)">
     <use xlink:href="#DejaVuSans-31"/>
     <use xlink:href="#DejaVuSans-33" x="63.623047"/>
     <use xlink:href="#DejaVuSans-2e" x="127.246094"/>
     <use xlink:href="#DejaVuSans-34" x="159.033203"/>
    </g>
   </g>
   <g id="text_14">
    <!-- 6.9 -->
    <g transform="translate(297.813864 75.117327) scale(0.1 -0.1)">
     <defs>
      <path id="DejaVuSans-36" d="M 2113 2584 
Q 1688 2584 1439 2293 
Q 1191 2003 1191 1497 
Q 1191 994 1439 701 
Q 1688 409 2113 409 
Q 2538 409 2786 701 
Q 3034 994 3034 1497 
Q 3034 2003 2786 2293 
Q 2538 2584 2113 2584 
z
M 3366 4563 
L 3366 3988 
Q 3128 4100 2886 4159 
Q 2644 4219 2406 4219 
Q 1781 4219 1451 3797 
Q 1122 3375 1075 2522 
Q 1259 2794 1537 2939 
Q 1816 3084 2150 3084 
Q 2853 3084 3261 2657 
Q 3669 2231 3669 1497 
Q 3669 778 3244 343 
Q 2819 -91 2113 -91 
Q 1303 -91 875 529 
Q 447 1150 447 2328 
Q 447 3434 972 4092 
Q 1497 4750 2381 4750 
Q 2619 4750 2861 4703 
Q 3103 4656 3366 4563 
z
" transform="scale(0.015625)"/>
     </defs>
     <use xlink:href="#DejaVuSans-36"/>
     <use xlink:href="#DejaVuSans-2e" x="63.623047"/>
     <use xlink:href="#DejaVuSans-39" x="95.410156"/>
    </g>
   </g>
   <g id="text_15">
    <!-- 3.9 -->
    <g transform="translate(284.910744 71.233131) scale(0.1 -0.1)">
     <use xlink:href="#DejaVuSans-33"/>
     <use xlink:href="#DejaVuSans-2e" x="63.623047"/>
     <use xlink:href="#DejaVuSans-39" x="95.410156"/>
    </g>
   </g>
   <g id="legend_2">
    <g id="patch_13">
     <path d="M 218.403906 202.560471 
L 357.596094 202.560471 
Q 359.596094 202.560471 359.596094 200.560471 
L 359.596094 186.882346 
Q 359.596094 184.882346 357.596094 184.882346 
L 218.403906 184.882346 
Q 216.403906 184.882346 216.403906 186.882346 
L 216.403906 200.560471 
Q 216.403906 202.560471 218.403906 202.560471 
L 218.403906 202.560471 
z
" style="fill: none; opacity: 0"/>
    </g>
    <g id="line2d_6">
     <g>
      <use xlink:href="#mb8c9022622" x="230.403906" y="192.980783" style="fill: #1f77b4; stroke: #1f77b4; stroke-linejoin: miter"/>
     </g>
    </g>
    <g id="text_16">
     <!-- 1 -->
     <g transform="translate(235.403906 196.480783) scale(0.1 -0.1)">
      <use xlink:href="#DejaVuSans-31"/>
     </g>
    </g>
    <g id="line2d_7">
     <g>
      <use xlink:href="#m844f479a97" x="256.766406" y="192.980783" style="fill: #ff7f0e; stroke: #ff7f0e; stroke-linejoin: miter"/>
     </g>
    </g>
    <g id="text_17">
     <!-- 2 -->
     <g transform="translate(261.766406 196.480783) scale(0.1 -0.1)">
      <use xlink:href="#DejaVuSans-32"/>
     </g>
    </g>
    <g id="line2d_8">
     <g>
      <use xlink:href="#mee4e1c7988" x="283.128906" y="192.980783" style="fill: #2ca02c; stroke: #2ca02c; stroke-linejoin: miter"/>
     </g>
    </g>
    <g id="text_18">
     <!-- 3 -->
     <g transform="translate(288.128906 196.480783) scale(0.1 -0.1)">
      <use xlink:href="#DejaVuSans-33"/>
     </g>
    </g>
    <g id="line2d_9">
     <g>
      <use xlink:href="#ma534f1f855" x="309.491406" y="192.980783" style="fill: #d62728; stroke: #d62728; stroke-linejoin: miter"/>
     </g>
    </g>
    <g id="text_19">
     <!-- 4 -->
     <g transform="translate(314.491406 196.480783) scale(0.1 -0.1)">
      <use xlink:href="#DejaVuSans-34"/>
     </g>
    </g>
    <g id="line2d_10">
     <g>
      <use xlink:href="#m471004dc55" x="335.853906" y="192.980783" style="fill: #9467bd; stroke: #9467bd; stroke-linejoin: miter"/>
     </g>
    </g>
    <g id="text_20">
     <!-- ≥5 -->
     <g transform="translate(340.853906 196.480783) scale(0.1 -0.1)">
      <use xlink:href="#DejaVuSans-2265"/>
      <use xlink:href="#DejaVuSans-35" x="83.789062"/>
     </g>
    </g>
   </g>
  </g>
  <g id="axes_3">
   <g id="patch_14">
    <path d="M 476.4 41.626353 
C 466.248306 41.626353 456.230636 43.95537 447.120105 48.433661 
C 438.009573 52.911952 430.046735 59.421272 423.846125 67.459264 
C 417.645514 75.497256 413.370853 84.851683 411.352038 94.800616 
C 409.333224 104.74955 409.623561 115.030295 412.200642 124.849436 
C 414.777724 134.668578 419.573505 143.766847 426.21787 151.442087 
C 432.862236 159.117326 441.179746 165.166875 450.528497 169.123861 
C 459.877248 173.080847 470.010394 174.840787 480.145908 174.267859 
C 490.281421 173.694932 500.151683 170.804263 508.994954 165.818941 
L 476.4 108 
z
" style="fill: #1f77b4"/>
   </g>
   <g id="patch_15">
    <path d="M 508.994954 165.818941 
C 516.93741 161.341447 523.872743 155.275049 529.367321 147.999049 
C 534.861899 140.723049 538.798769 132.392319 540.931779 123.527735 
C 543.064788 114.663152 543.348536 105.453402 541.76528 96.474323 
C 540.182024 87.495243 536.765464 78.937957 531.729221 71.337509 
L 476.4 108 
z
" style="fill: #ff7f0e"/>
   </g>
   <g id="patch_16">
    <path d="M 531.729221 71.337509 
C 527.452547 64.883363 522.079357 59.227023 515.85315 54.624819 
C 509.626944 50.022615 502.643214 46.545133 495.218447 44.349964 
L 476.4 108 
z
" style="fill: #2ca02c"/>
   </g>
   <g id="patch_17">
    <path d="M 495.218447 44.349964 
C 493.911399 43.963529 492.592759 43.617446 491.264401 43.312207 
C 489.936043 43.006967 488.598598 42.742717 487.253968 42.519832 
L 476.4 108 
z
" style="fill: #d62728"/>
   </g>
   <g id="patch_18">
    <path d="M 487.253968 42.519832 
C 485.461019 42.222633 483.65662 41.999201 481.845332 41.850099 
C 480.034045 41.700997 478.217397 41.626352 476.399983 41.626353 
L 476.4 108 
z
" style="fill: #9467bd"/>
   </g>
   <g id="matplotlib.axis_5"/>
   <g id="matplotlib.axis_6"/>
   <g id="text_21">
    <!-- 58.2 -->
    <g transform="translate(426.747573 120.869037) scale(0.1 -0.1)">
     <use xlink:href="#DejaVuSans-35"/>
     <use xlink:href="#DejaVuSans-38" x="63.623047"/>
     <use xlink:href="#DejaVuSans-2e" x="127.246094"/>
     <use xlink:href="#DejaVuSans-32" x="159.033203"/>
    </g>
   </g>
   <g id="text_22">
    <!-- 26.1 -->
    <g transform="translate(503.986255 120.076016) scale(0.1 -0.1)">
     <use xlink:href="#DejaVuSans-32"/>
     <use xlink:href="#DejaVuSans-36" x="63.623047"/>
     <use xlink:href="#DejaVuSans-2e" x="127.246094"/>
     <use xlink:href="#DejaVuSans-31" x="159.033203"/>
    </g>
   </g>
   <g id="text_23">
    <!-- 11.1 -->
    <g transform="translate(488.939078 78.734266) scale(0.1 -0.1)">
     <use xlink:href="#DejaVuSans-31"/>
     <use xlink:href="#DejaVuSans-31" x="63.623047"/>
     <use xlink:href="#DejaVuSans-2e" x="127.246094"/>
     <use xlink:href="#DejaVuSans-31" x="159.033203"/>
    </g>
   </g>
   <g id="text_24">
    <!-- 2.0 -->
    <g transform="translate(477.367078 71.946699) scale(0.1 -0.1)">
     <use xlink:href="#DejaVuSans-32"/>
     <use xlink:href="#DejaVuSans-2e" x="63.623047"/>
     <use xlink:href="#DejaVuSans-30" x="95.410156"/>
    </g>
   </g>
   <g id="text_25">
    <!-- 2.6 -->
    <g transform="translate(475.255103 28.071999) scale(0.1 -0.1)">
     <use xlink:href="#DejaVuSans-32"/>
     <use xlink:href="#DejaVuSans-2e" x="63.623047"/>
     <use xlink:href="#DejaVuSans-36" x="95.410156"/>
    </g>
   </g>
   <g id="legend_3">
    <g id="patch_19">
     <path d="M 406.803906 202.560471 
L 545.996094 202.560471 
Q 547.996094 202.560471 547.996094 200.560471 
L 547.996094 186.882346 
Q 547.996094 184.882346 545.996094 184.882346 
L 406.803906 184.882346 
Q 404.803906 184.882346 404.803906 186.882346 
L 404.803906 200.560471 
Q 404.803906 202.560471 406.803906 202.560471 
L 406.803906 202.560471 
z
" style="fill: none; opacity: 0"/>
    </g>
    <g id="line2d_11">
     <g>
      <use xlink:href="#mb8c9022622" x="418.803906" y="192.980783" style="fill: #1f77b4; stroke: #1f77b4; stroke-linejoin: miter"/>
     </g>
    </g>
    <g id="text_26">
     <!-- 1 -->
     <g transform="translate(423.803906 196.480783) scale(0.1 -0.1)">
      <use xlink:href="#DejaVuSans-31"/>
     </g>
    </g>
    <g id="line2d_12">
     <g>
      <use xlink:href="#m844f479a97" x="445.166406" y="192.980783" style="fill: #ff7f0e; stroke: #ff7f0e; stroke-linejoin: miter"/>
     </g>
    </g>
    <g id="text_27">
     <!-- 2 -->
     <g transform="translate(450.166406 196.480783) scale(0.1 -0.1)">
      <use xlink:href="#DejaVuSans-32"/>
     </g>
    </g>
    <g id="line2d_13">
     <g>
      <use xlink:href="#mee4e1c7988" x="471.528906" y="192.980783" style="fill: #2ca02c; stroke: #2ca02c; stroke-linejoin: miter"/>
     </g>
    </g>
    <g id="text_28">
     <!-- 3 -->
     <g transform="translate(476.528906 196.480783) scale(0.1 -0.1)">
      <use xlink:href="#DejaVuSans-33"/>
     </g>
    </g>
    <g id="line2d_14">
     <g>
      <use xlink:href="#ma534f1f855" x="497.891406" y="192.980783" style="fill: #d62728; stroke: #d62728; stroke-linejoin: miter"/>
     </g>
    </g>
    <g id="text_29">
     <!-- 4 -->
     <g transform="translate(502.891406 196.480783) scale(0.1 -0.1)">
      <use xlink:href="#DejaVuSans-34"/>
     </g>
    </g>
    <g id="line2d_15">
     <g>
      <use xlink:href="#m471004dc55" x="524.253906" y="192.980783" style="fill: #9467bd; stroke: #9467bd; stroke-linejoin: miter"/>
     </g>
    </g>
    <g id="text_30">
     <!-- ≥5 -->
     <g transform="translate(529.253906 196.480783) scale(0.1 -0.1)">
      <use xlink:href="#DejaVuSans-2265"/>
      <use xlink:href="#DejaVuSans-35" x="83.789062"/>
     </g>
    </g>
   </g>
  </g>
 </g>
</svg>
